%TF.GenerationSoftware,KiCad,Pcbnew,(6.0.6)*%
%TF.CreationDate,2022-11-20T20:44:48-03:00*%
%TF.ProjectId,1_Sistema_FINAL,315f5369-7374-4656-9d61-5f46494e414c,rev?*%
%TF.SameCoordinates,Original*%
%TF.FileFunction,Copper,L1,Top*%
%TF.FilePolarity,Positive*%
%FSLAX46Y46*%
G04 Gerber Fmt 4.6, Leading zero omitted, Abs format (unit mm)*
G04 Created by KiCad (PCBNEW (6.0.6)) date 2022-11-20 20:44:48*
%MOMM*%
%LPD*%
G01*
G04 APERTURE LIST*
%ADD10C,0.300000*%
%TA.AperFunction,NonConductor*%
%ADD11C,0.300000*%
%TD*%
%TA.AperFunction,NonConductor*%
%ADD12C,0.200000*%
%TD*%
%TA.AperFunction,ComponentPad*%
%ADD13C,1.600000*%
%TD*%
%TA.AperFunction,ComponentPad*%
%ADD14O,1.200000X2.500000*%
%TD*%
%TA.AperFunction,ComponentPad*%
%ADD15R,1.800000X1.800000*%
%TD*%
%TA.AperFunction,ComponentPad*%
%ADD16C,1.800000*%
%TD*%
%TA.AperFunction,ComponentPad*%
%ADD17O,1.600000X1.600000*%
%TD*%
%TA.AperFunction,ComponentPad*%
%ADD18C,2.000000*%
%TD*%
%TA.AperFunction,ComponentPad*%
%ADD19R,2.000000X2.000000*%
%TD*%
%TA.AperFunction,ComponentPad*%
%ADD20O,2.000000X2.000000*%
%TD*%
%TA.AperFunction,ComponentPad*%
%ADD21R,2.400000X1.600000*%
%TD*%
%TA.AperFunction,ComponentPad*%
%ADD22O,2.400000X1.600000*%
%TD*%
%TA.AperFunction,ComponentPad*%
%ADD23R,1.600000X1.600000*%
%TD*%
%TA.AperFunction,ComponentPad*%
%ADD24R,1.700000X1.700000*%
%TD*%
%TA.AperFunction,ComponentPad*%
%ADD25O,1.700000X1.700000*%
%TD*%
%TA.AperFunction,ComponentPad*%
%ADD26R,1.500000X1.500000*%
%TD*%
%TA.AperFunction,ComponentPad*%
%ADD27C,1.500000*%
%TD*%
%TA.AperFunction,WasherPad*%
%ADD28O,4.000000X6.000000*%
%TD*%
%TA.AperFunction,ComponentPad*%
%ADD29O,6.000000X4.000000*%
%TD*%
%TA.AperFunction,SMDPad,CuDef*%
%ADD30R,3.100000X1.600000*%
%TD*%
%TA.AperFunction,ComponentPad*%
%ADD31R,1.905000X2.000000*%
%TD*%
%TA.AperFunction,ComponentPad*%
%ADD32O,1.905000X2.000000*%
%TD*%
%TA.AperFunction,ComponentPad*%
%ADD33R,2.000000X1.905000*%
%TD*%
%TA.AperFunction,ComponentPad*%
%ADD34O,2.000000X1.905000*%
%TD*%
%TA.AperFunction,ComponentPad*%
%ADD35R,3.000000X3.000000*%
%TD*%
%TA.AperFunction,ComponentPad*%
%ADD36C,3.000000*%
%TD*%
%TA.AperFunction,ComponentPad*%
%ADD37C,1.524000*%
%TD*%
%TA.AperFunction,ComponentPad*%
%ADD38R,2.000000X1.524000*%
%TD*%
%TA.AperFunction,ComponentPad*%
%ADD39R,1.600000X2.400000*%
%TD*%
%TA.AperFunction,ComponentPad*%
%ADD40O,1.600000X2.400000*%
%TD*%
%TA.AperFunction,ComponentPad*%
%ADD41C,1.440000*%
%TD*%
%TA.AperFunction,ComponentPad*%
%ADD42R,1.050000X1.300000*%
%TD*%
%TA.AperFunction,ComponentPad*%
%ADD43O,1.050000X1.300000*%
%TD*%
%TA.AperFunction,ViaPad*%
%ADD44C,1.600000*%
%TD*%
%TA.AperFunction,ViaPad*%
%ADD45C,4.000000*%
%TD*%
%TA.AperFunction,ViaPad*%
%ADD46C,1.200000*%
%TD*%
%TA.AperFunction,Conductor*%
%ADD47C,0.800000*%
%TD*%
%TA.AperFunction,Conductor*%
%ADD48C,0.500000*%
%TD*%
%TA.AperFunction,Conductor*%
%ADD49C,0.400000*%
%TD*%
G04 APERTURE END LIST*
D10*
D11*
X45614571Y-196523714D02*
X45614571Y-197380857D01*
X45614571Y-196952285D02*
X44114571Y-196952285D01*
X44328857Y-197095142D01*
X44471714Y-197238000D01*
X44543142Y-197380857D01*
X44114571Y-196023714D02*
X44114571Y-195023714D01*
X45614571Y-195666571D01*
X45614571Y-194380857D02*
X45614571Y-194095142D01*
X45543142Y-193952285D01*
X45471714Y-193880857D01*
X45257428Y-193738000D01*
X44971714Y-193666571D01*
X44400285Y-193666571D01*
X44257428Y-193738000D01*
X44186000Y-193809428D01*
X44114571Y-193952285D01*
X44114571Y-194238000D01*
X44186000Y-194380857D01*
X44257428Y-194452285D01*
X44400285Y-194523714D01*
X44757428Y-194523714D01*
X44900285Y-194452285D01*
X44971714Y-194380857D01*
X45043142Y-194238000D01*
X45043142Y-193952285D01*
X44971714Y-193809428D01*
X44900285Y-193738000D01*
X44757428Y-193666571D01*
X45543142Y-192952285D02*
X45614571Y-192952285D01*
X45757428Y-193023714D01*
X45828857Y-193095142D01*
X44114571Y-192452285D02*
X44114571Y-191523714D01*
X44686000Y-192023714D01*
X44686000Y-191809428D01*
X44757428Y-191666571D01*
X44828857Y-191595142D01*
X44971714Y-191523714D01*
X45328857Y-191523714D01*
X45471714Y-191595142D01*
X45543142Y-191666571D01*
X45614571Y-191809428D01*
X45614571Y-192238000D01*
X45543142Y-192380857D01*
X45471714Y-192452285D01*
X44257428Y-190952285D02*
X44186000Y-190880857D01*
X44114571Y-190738000D01*
X44114571Y-190380857D01*
X44186000Y-190238000D01*
X44257428Y-190166571D01*
X44400285Y-190095142D01*
X44543142Y-190095142D01*
X44757428Y-190166571D01*
X45614571Y-191023714D01*
X45614571Y-190095142D01*
X44614571Y-188809428D02*
X45614571Y-188809428D01*
X44043142Y-189166571D02*
X45114571Y-189523714D01*
X45114571Y-188595142D01*
X44114571Y-187738000D02*
X44114571Y-187595142D01*
X44186000Y-187452285D01*
X44257428Y-187380857D01*
X44400285Y-187309428D01*
X44686000Y-187238000D01*
X45043142Y-187238000D01*
X45328857Y-187309428D01*
X45471714Y-187380857D01*
X45543142Y-187452285D01*
X45614571Y-187595142D01*
X45614571Y-187738000D01*
X45543142Y-187880857D01*
X45471714Y-187952285D01*
X45328857Y-188023714D01*
X45043142Y-188095142D01*
X44686000Y-188095142D01*
X44400285Y-188023714D01*
X44257428Y-187952285D01*
X44186000Y-187880857D01*
X44114571Y-187738000D01*
X45614571Y-185452285D02*
X44614571Y-185452285D01*
X44757428Y-185452285D02*
X44686000Y-185380857D01*
X44614571Y-185238000D01*
X44614571Y-185023714D01*
X44686000Y-184880857D01*
X44828857Y-184809428D01*
X45614571Y-184809428D01*
X44828857Y-184809428D02*
X44686000Y-184738000D01*
X44614571Y-184595142D01*
X44614571Y-184380857D01*
X44686000Y-184238000D01*
X44828857Y-184166571D01*
X45614571Y-184166571D01*
X45614571Y-183452285D02*
X44614571Y-183452285D01*
X44757428Y-183452285D02*
X44686000Y-183380857D01*
X44614571Y-183238000D01*
X44614571Y-183023714D01*
X44686000Y-182880857D01*
X44828857Y-182809428D01*
X45614571Y-182809428D01*
X44828857Y-182809428D02*
X44686000Y-182738000D01*
X44614571Y-182595142D01*
X44614571Y-182380857D01*
X44686000Y-182238000D01*
X44828857Y-182166571D01*
X45614571Y-182166571D01*
D12*
X153678000Y-100076000D02*
X46149580Y-100076000D01*
X153678000Y-279400000D02*
X46149580Y-279400000D01*
X46736000Y-100076000D02*
X46736000Y-279400000D01*
X46736000Y-100076000D02*
X46736000Y-279400000D01*
X46736000Y-100076000D02*
X46149579Y-101202504D01*
X46736000Y-100076000D02*
X47322421Y-101202504D01*
X46736000Y-279400000D02*
X47322421Y-278273496D01*
X46736000Y-279400000D02*
X46149579Y-278273496D01*
D10*
D11*
X44757428Y-64935857D02*
X44686000Y-65078714D01*
X44614571Y-65150142D01*
X44471714Y-65221571D01*
X44400285Y-65221571D01*
X44257428Y-65150142D01*
X44186000Y-65078714D01*
X44114571Y-64935857D01*
X44114571Y-64650142D01*
X44186000Y-64507285D01*
X44257428Y-64435857D01*
X44400285Y-64364428D01*
X44471714Y-64364428D01*
X44614571Y-64435857D01*
X44686000Y-64507285D01*
X44757428Y-64650142D01*
X44757428Y-64935857D01*
X44828857Y-65078714D01*
X44900285Y-65150142D01*
X45043142Y-65221571D01*
X45328857Y-65221571D01*
X45471714Y-65150142D01*
X45543142Y-65078714D01*
X45614571Y-64935857D01*
X45614571Y-64650142D01*
X45543142Y-64507285D01*
X45471714Y-64435857D01*
X45328857Y-64364428D01*
X45043142Y-64364428D01*
X44900285Y-64435857D01*
X44828857Y-64507285D01*
X44757428Y-64650142D01*
X44257428Y-63793000D02*
X44186000Y-63721571D01*
X44114571Y-63578714D01*
X44114571Y-63221571D01*
X44186000Y-63078714D01*
X44257428Y-63007285D01*
X44400285Y-62935857D01*
X44543142Y-62935857D01*
X44757428Y-63007285D01*
X45614571Y-63864428D01*
X45614571Y-62935857D01*
X45543142Y-62221571D02*
X45614571Y-62221571D01*
X45757428Y-62293000D01*
X45828857Y-62364428D01*
X44114571Y-60864428D02*
X44114571Y-61578714D01*
X44828857Y-61650142D01*
X44757428Y-61578714D01*
X44686000Y-61435857D01*
X44686000Y-61078714D01*
X44757428Y-60935857D01*
X44828857Y-60864428D01*
X44971714Y-60793000D01*
X45328857Y-60793000D01*
X45471714Y-60864428D01*
X45543142Y-60935857D01*
X45614571Y-61078714D01*
X45614571Y-61435857D01*
X45543142Y-61578714D01*
X45471714Y-61650142D01*
X44114571Y-59435857D02*
X44114571Y-60150142D01*
X44828857Y-60221571D01*
X44757428Y-60150142D01*
X44686000Y-60007285D01*
X44686000Y-59650142D01*
X44757428Y-59507285D01*
X44828857Y-59435857D01*
X44971714Y-59364428D01*
X45328857Y-59364428D01*
X45471714Y-59435857D01*
X45543142Y-59507285D01*
X45614571Y-59650142D01*
X45614571Y-60007285D01*
X45543142Y-60150142D01*
X45471714Y-60221571D01*
X44114571Y-58435857D02*
X44114571Y-58293000D01*
X44186000Y-58150142D01*
X44257428Y-58078714D01*
X44400285Y-58007285D01*
X44686000Y-57935857D01*
X45043142Y-57935857D01*
X45328857Y-58007285D01*
X45471714Y-58078714D01*
X45543142Y-58150142D01*
X45614571Y-58293000D01*
X45614571Y-58435857D01*
X45543142Y-58578714D01*
X45471714Y-58650142D01*
X45328857Y-58721571D01*
X45043142Y-58793000D01*
X44686000Y-58793000D01*
X44400285Y-58721571D01*
X44257428Y-58650142D01*
X44186000Y-58578714D01*
X44114571Y-58435857D01*
X44114571Y-57007285D02*
X44114571Y-56864428D01*
X44186000Y-56721571D01*
X44257428Y-56650142D01*
X44400285Y-56578714D01*
X44686000Y-56507285D01*
X45043142Y-56507285D01*
X45328857Y-56578714D01*
X45471714Y-56650142D01*
X45543142Y-56721571D01*
X45614571Y-56864428D01*
X45614571Y-57007285D01*
X45543142Y-57150142D01*
X45471714Y-57221571D01*
X45328857Y-57293000D01*
X45043142Y-57364428D01*
X44686000Y-57364428D01*
X44400285Y-57293000D01*
X44257428Y-57221571D01*
X44186000Y-57150142D01*
X44114571Y-57007285D01*
X45614571Y-54721571D02*
X44614571Y-54721571D01*
X44757428Y-54721571D02*
X44686000Y-54650142D01*
X44614571Y-54507285D01*
X44614571Y-54293000D01*
X44686000Y-54150142D01*
X44828857Y-54078714D01*
X45614571Y-54078714D01*
X44828857Y-54078714D02*
X44686000Y-54007285D01*
X44614571Y-53864428D01*
X44614571Y-53650142D01*
X44686000Y-53507285D01*
X44828857Y-53435857D01*
X45614571Y-53435857D01*
X45614571Y-52721571D02*
X44614571Y-52721571D01*
X44757428Y-52721571D02*
X44686000Y-52650142D01*
X44614571Y-52507285D01*
X44614571Y-52293000D01*
X44686000Y-52150142D01*
X44828857Y-52078714D01*
X45614571Y-52078714D01*
X44828857Y-52078714D02*
X44686000Y-52007285D01*
X44614571Y-51864428D01*
X44614571Y-51650142D01*
X44686000Y-51507285D01*
X44828857Y-51435857D01*
X45614571Y-51435857D01*
D12*
X145550000Y-99568000D02*
X46149580Y-99568000D01*
X145550000Y-17018000D02*
X46149580Y-17018000D01*
X46736000Y-99568000D02*
X46736000Y-17018000D01*
X46736000Y-99568000D02*
X46736000Y-17018000D01*
X46736000Y-99568000D02*
X47322421Y-98441496D01*
X46736000Y-99568000D02*
X46149579Y-98441496D01*
X46736000Y-17018000D02*
X46149579Y-18144504D01*
X46736000Y-17018000D02*
X47322421Y-18144504D01*
D13*
%TO.P,C43,1*%
%TO.N,GND*%
X338420000Y-98440000D03*
%TO.P,C43,2*%
%TO.N,-2.5V*%
X340920000Y-98440000D03*
%TD*%
D14*
%TO.P,SW1,1,A*%
%TO.N,unconnected-(SW1-Pad1)*%
X102643407Y-29308851D03*
%TO.P,SW1,2,B*%
%TO.N,Net-(J4-Pad1)*%
X107723407Y-29308851D03*
%TO.P,SW1,3,C*%
%TO.N,Net-(F1-Pad1)*%
X112776000Y-29308851D03*
%TO.P,SW1,4,A*%
%TO.N,unconnected-(SW1-Pad4)*%
X102616000Y-35147000D03*
%TO.P,SW1,5,B*%
%TO.N,Net-(J36-Pad1)*%
X107696000Y-35147000D03*
%TO.P,SW1,6,C*%
%TO.N,Net-(J43-Pad3)*%
X112776000Y-35147000D03*
%TD*%
D15*
%TO.P,D5,1,K*%
%TO.N,Net-(D5-Pad1)*%
X81307500Y-121617800D03*
D16*
%TO.P,D5,2,A*%
%TO.N,Net-(D5-Pad2)*%
X81307500Y-119077800D03*
%TD*%
D13*
%TO.P,R21,1*%
%TO.N,VCC*%
X160917500Y-192243800D03*
D17*
%TO.P,R21,2*%
%TO.N,Net-(J34-Pad1)*%
X145677500Y-192243800D03*
%TD*%
D13*
%TO.P,R16,1*%
%TO.N,PA0*%
X142180000Y-249600000D03*
D17*
%TO.P,R16,2*%
%TO.N,VCC*%
X132020000Y-249600000D03*
%TD*%
D13*
%TO.P,R56,1*%
%TO.N,Net-(R54-Pad1)*%
X270465000Y-97400000D03*
D17*
%TO.P,R56,2*%
%TO.N,Net-(R56-Pad2)*%
X280625000Y-97400000D03*
%TD*%
D18*
%TO.P,J11,1,Pin_1*%
%TO.N,GND*%
X107930000Y-91550000D03*
%TD*%
%TO.P,J26,1,Pin_1*%
%TO.N,GND*%
X356690000Y-141370000D03*
%TD*%
D13*
%TO.P,C2,1*%
%TO.N,CLOCK*%
X105046100Y-116104600D03*
%TO.P,C2,2*%
%TO.N,GND*%
X105046100Y-111104600D03*
%TD*%
D18*
%TO.P,J40,1,Pin_1*%
%TO.N,VCC*%
X156040000Y-132460000D03*
%TD*%
%TO.P,SW2,1,1*%
%TO.N,Net-(C29-Pad2)*%
X175200000Y-202875000D03*
X181700000Y-202875000D03*
%TO.P,SW2,2,2*%
%TO.N,VCC*%
X181700000Y-198375000D03*
X175200000Y-198375000D03*
%TD*%
D19*
%TO.P,D1,1,+*%
%TO.N,Net-(C11-Pad1)*%
X243445818Y-23681363D03*
D20*
%TO.P,D1,2*%
%TO.N,Net-(D1-Pad2)*%
X238445818Y-23681363D03*
%TO.P,D1,3,-*%
%TO.N,Net-(C16-Pad2)*%
X238445818Y-28681363D03*
%TO.P,D1,4*%
%TO.N,Net-(D1-Pad4)*%
X243445818Y-28681363D03*
%TD*%
D13*
%TO.P,C18,1*%
%TO.N,GND*%
X328465000Y-26841000D03*
%TO.P,C18,2*%
%TO.N,VCC_-12V*%
X328465000Y-24341000D03*
%TD*%
%TO.P,R44,1*%
%TO.N,Net-(R40-Pad2)*%
X303530000Y-79325000D03*
D17*
%TO.P,R44,2*%
%TO.N,-2.5V*%
X293370000Y-79325000D03*
%TD*%
D15*
%TO.P,D2,1,K*%
%TO.N,GND*%
X350814000Y-70104000D03*
D16*
%TO.P,D2,2,A*%
%TO.N,Net-(D2-Pad2)*%
X348274000Y-70104000D03*
%TD*%
D13*
%TO.P,R36,1*%
%TO.N,Net-(C39-Pad1)*%
X315465000Y-88750000D03*
D17*
%TO.P,R36,2*%
%TO.N,Net-(R36-Pad2)*%
X325625000Y-88750000D03*
%TD*%
D13*
%TO.P,R46,1*%
%TO.N,Net-(R42-Pad1)*%
X325800000Y-98175000D03*
D17*
%TO.P,R46,2*%
%TO.N,Net-(R46-Pad2)*%
X315640000Y-98175000D03*
%TD*%
D13*
%TO.P,C29,1*%
%TO.N,VCC*%
X184550000Y-199650000D03*
%TO.P,C29,2*%
%TO.N,Net-(C29-Pad2)*%
X184550000Y-202150000D03*
%TD*%
%TO.P,C16,1*%
%TO.N,GND*%
X303684389Y-30751190D03*
%TO.P,C16,2*%
%TO.N,Net-(C16-Pad2)*%
X303684389Y-33251190D03*
%TD*%
D18*
%TO.P,J29,1,Pin_1*%
%TO.N,GND*%
X190340000Y-120070000D03*
%TD*%
D21*
%TO.P,U19,1,A0*%
%TO.N,A10*%
X253777500Y-148403800D03*
D22*
%TO.P,U19,2,A1*%
%TO.N,A11*%
X253777500Y-150943800D03*
%TO.P,U19,3,A2*%
%TO.N,A12*%
X253777500Y-153483800D03*
%TO.P,U19,4,E1*%
%TO.N,A15-*%
X253777500Y-156023800D03*
%TO.P,U19,5,E2*%
%TO.N,Net-(U14-Pad11)*%
X253777500Y-158563800D03*
%TO.P,U19,6,E3*%
%TO.N,A13*%
X253777500Y-161103800D03*
%TO.P,U19,7,O7*%
%TO.N,unconnected-(U19-Pad7)*%
X253777500Y-163643800D03*
%TO.P,U19,8,GND*%
%TO.N,GND*%
X253777500Y-166183800D03*
%TO.P,U19,9,O6*%
%TO.N,CS_SPI*%
X261397500Y-166183800D03*
%TO.P,U19,10,O5*%
%TO.N,unconnected-(U19-Pad10)*%
X261397500Y-163643800D03*
%TO.P,U19,11,O4*%
%TO.N,unconnected-(U19-Pad11)*%
X261397500Y-161103800D03*
%TO.P,U19,12,O3*%
%TO.N,unconnected-(U19-Pad12)*%
X261397500Y-158563800D03*
%TO.P,U19,13,O2*%
%TO.N,unconnected-(U19-Pad13)*%
X261397500Y-156023800D03*
%TO.P,U19,14,O1*%
%TO.N,unconnected-(U19-Pad14)*%
X261397500Y-153483800D03*
%TO.P,U19,15,O0*%
%TO.N,unconnected-(U19-Pad15)*%
X261397500Y-150943800D03*
%TO.P,U19,16,VCC*%
%TO.N,VCC*%
X261397500Y-148403800D03*
%TD*%
D18*
%TO.P,J3,1,Pin_1*%
%TO.N,GND*%
X87800000Y-91600000D03*
%TD*%
D23*
%TO.P,X2,1,EN*%
%TO.N,VCC*%
X67550000Y-208250000D03*
D17*
%TO.P,X2,4,GND*%
%TO.N,GND*%
X67550000Y-215870000D03*
%TO.P,X2,5,OUT*%
%TO.N,Net-(U25-Pad2)*%
X75170000Y-215870000D03*
%TO.P,X2,8,Vdd*%
%TO.N,VCC*%
X75170000Y-208250000D03*
%TD*%
D21*
%TO.P,U14,1*%
%TO.N,Net-(U13-Pad3)*%
X229177500Y-114863800D03*
D22*
%TO.P,U14,2*%
%TO.N,Net-(U13-Pad12)*%
X229177500Y-117403800D03*
%TO.P,U14,3*%
%TO.N,Net-(U14-Pad3)*%
X229177500Y-119943800D03*
%TO.P,U14,4*%
X229177500Y-122483800D03*
%TO.P,U14,5*%
%TO.N,Net-(U13-Pad13)*%
X229177500Y-125023800D03*
%TO.P,U14,6*%
%TO.N,Net-(U14-Pad6)*%
X229177500Y-127563800D03*
%TO.P,U14,7,GND*%
%TO.N,GND*%
X229177500Y-130103800D03*
%TO.P,U14,8*%
%TO.N,CS_IO*%
X236797500Y-130103800D03*
%TO.P,U14,9*%
%TO.N,Net-(U14-Pad6)*%
X236797500Y-127563800D03*
%TO.P,U14,10*%
%TO.N,N2*%
X236797500Y-125023800D03*
%TO.P,U14,11*%
%TO.N,Net-(U14-Pad11)*%
X236797500Y-122483800D03*
%TO.P,U14,12*%
%TO.N,A14*%
X236797500Y-119943800D03*
%TO.P,U14,13*%
%TO.N,VCC*%
X236797500Y-117403800D03*
%TO.P,U14,14,VCC*%
X236797500Y-114863800D03*
%TD*%
D21*
%TO.P,U18,1*%
%TO.N,Net-(U18-Pad1)*%
X272180000Y-215080000D03*
D22*
%TO.P,U18,2*%
%TO.N,MRD*%
X272180000Y-217620000D03*
%TO.P,U18,3*%
%TO.N,CS_SPI*%
X272180000Y-220160000D03*
%TO.P,U18,4*%
%TO.N,Net-(U18-Pad4)*%
X272180000Y-222700000D03*
%TO.P,U18,5*%
%TO.N,Net-(U18-Pad1)*%
X272180000Y-225240000D03*
%TO.P,U18,6*%
%TO.N,GND*%
X272180000Y-227780000D03*
%TO.P,U18,7,GND*%
X272180000Y-230320000D03*
%TO.P,U18,8*%
X279800000Y-230320000D03*
%TO.P,U18,9*%
X279800000Y-227780000D03*
%TO.P,U18,10*%
%TO.N,unconnected-(U18-Pad10)*%
X279800000Y-225240000D03*
%TO.P,U18,11*%
%TO.N,GND*%
X279800000Y-222700000D03*
%TO.P,U18,12*%
X279800000Y-220160000D03*
%TO.P,U18,13*%
%TO.N,unconnected-(U18-Pad13)*%
X279800000Y-217620000D03*
%TO.P,U18,14,VCC*%
%TO.N,VCC*%
X279800000Y-215080000D03*
%TD*%
D18*
%TO.P,J20,1,Pin_1*%
%TO.N,VCC_-12V*%
X322750000Y-39576000D03*
%TD*%
D23*
%TO.P,C20,1*%
%TO.N,Net-(C20-Pad1)*%
X316180000Y-145940000D03*
D13*
%TO.P,C20,2*%
%TO.N,GND*%
X316180000Y-147940000D03*
%TD*%
D24*
%TO.P,J1,1,Pin_1*%
%TO.N,GND*%
X111997500Y-242468800D03*
D25*
%TO.P,J1,2,Pin_2*%
%TO.N,WP1*%
X111997500Y-239928800D03*
%TO.P,J1,3,Pin_3*%
%TO.N,VCC*%
X111997500Y-237388800D03*
%TD*%
D26*
%TO.P,T2,1,E*%
%TO.N,GND*%
X81727500Y-124401800D03*
D27*
%TO.P,T2,2,B*%
%TO.N,Net-(R12-Pad2)*%
X84267500Y-126941800D03*
%TO.P,T2,3,C*%
%TO.N,Net-(D5-Pad1)*%
X81727500Y-129481800D03*
%TD*%
D18*
%TO.P,J6,1,Pin_1*%
%TO.N,VCC*%
X337890000Y-206870000D03*
%TD*%
%TO.P,J24,1,Pin_1*%
%TO.N,GND*%
X313420000Y-166370000D03*
%TD*%
%TO.P,J17,1,Pin_1*%
%TO.N,MRD*%
X100650000Y-145670000D03*
%TD*%
%TO.P,J30,1,Pin_1*%
%TO.N,GND*%
X277610000Y-130700000D03*
%TD*%
D24*
%TO.P,J38,1,Pin_1*%
%TO.N,Net-(J38-Pad1)*%
X173297500Y-219593800D03*
D25*
%TO.P,J38,2,Pin_2*%
%TO.N,Net-(J38-Pad2)*%
X175837500Y-219593800D03*
%TO.P,J38,3,Pin_3*%
%TO.N,Net-(J38-Pad3)*%
X178377500Y-219593800D03*
%TO.P,J38,4,Pin_4*%
%TO.N,Net-(J38-Pad4)*%
X180917500Y-219593800D03*
%TO.P,J38,5,Pin_5*%
%TO.N,Net-(J38-Pad5)*%
X183457500Y-219593800D03*
%TO.P,J38,6,Pin_6*%
%TO.N,Net-(J38-Pad6)*%
X185997500Y-219593800D03*
%TD*%
D13*
%TO.P,R4,1*%
%TO.N,CLOCK*%
X108703700Y-120981400D03*
D17*
%TO.P,R4,2*%
%TO.N,XTAL*%
X118863700Y-120981400D03*
%TD*%
D18*
%TO.P,J16,1,Pin_1*%
%TO.N,GND*%
X69750000Y-156810000D03*
%TD*%
D13*
%TO.P,R47,1*%
%TO.N,Net-(R43-Pad1)*%
X325650000Y-82550000D03*
D17*
%TO.P,R47,2*%
%TO.N,Net-(R47-Pad2)*%
X315490000Y-82550000D03*
%TD*%
D21*
%TO.P,U2,1,OE*%
%TO.N,GND*%
X144997500Y-170368800D03*
D22*
%TO.P,U2,2,D0*%
%TO.N,A0*%
X144997500Y-167828800D03*
%TO.P,U2,3,D1*%
%TO.N,A1*%
X144997500Y-165288800D03*
%TO.P,U2,4,D2*%
%TO.N,A2*%
X144997500Y-162748800D03*
%TO.P,U2,5,D3*%
%TO.N,A3*%
X144997500Y-160208800D03*
%TO.P,U2,6,D4*%
%TO.N,A4*%
X144997500Y-157668800D03*
%TO.P,U2,7,D5*%
%TO.N,A5*%
X144997500Y-155128800D03*
%TO.P,U2,8,D6*%
%TO.N,A6*%
X144997500Y-152588800D03*
%TO.P,U2,9,D7*%
%TO.N,A7*%
X144997500Y-150048800D03*
%TO.P,U2,10,GND*%
%TO.N,GND*%
X144997500Y-147508800D03*
%TO.P,U2,11,LE*%
%TO.N,TPA*%
X137377500Y-147508800D03*
%TO.P,U2,12,Q7*%
%TO.N,A15*%
X137377500Y-150048800D03*
%TO.P,U2,13,Q6*%
%TO.N,A14*%
X137377500Y-152588800D03*
%TO.P,U2,14,Q5*%
%TO.N,A13*%
X137377500Y-155128800D03*
%TO.P,U2,15,Q4*%
%TO.N,A12*%
X137377500Y-157668800D03*
%TO.P,U2,16,Q3*%
%TO.N,A11*%
X137377500Y-160208800D03*
%TO.P,U2,17,Q2*%
%TO.N,A10*%
X137377500Y-162748800D03*
%TO.P,U2,18,Q1*%
%TO.N,A9*%
X137377500Y-165288800D03*
%TO.P,U2,19,Q0*%
%TO.N,A8*%
X137377500Y-167828800D03*
%TO.P,U2,20,VCC*%
%TO.N,VCC*%
X137377500Y-170368800D03*
%TD*%
D18*
%TO.P,J7,1,Pin_1*%
%TO.N,VCC*%
X355346000Y-175260000D03*
%TD*%
D13*
%TO.P,R40,1*%
%TO.N,Net-(R34-Pad1)*%
X293470000Y-82350000D03*
D17*
%TO.P,R40,2*%
%TO.N,Net-(R40-Pad2)*%
X303630000Y-82350000D03*
%TD*%
D13*
%TO.P,C8,1*%
%TO.N,VCC*%
X212100000Y-151750000D03*
%TO.P,C8,2*%
%TO.N,GND*%
X212100000Y-149250000D03*
%TD*%
D18*
%TO.P,J31,1,Pin_1*%
%TO.N,GND*%
X109250000Y-249760000D03*
%TD*%
D21*
%TO.P,U13,1*%
%TO.N,TPA*%
X213577500Y-114223800D03*
D22*
%TO.P,U13,2*%
%TO.N,VCC*%
X213577500Y-116763800D03*
%TO.P,U13,3*%
%TO.N,Net-(U13-Pad3)*%
X213577500Y-119303800D03*
%TO.P,U13,4*%
%TO.N,TPB*%
X213577500Y-121843800D03*
%TO.P,U13,5*%
%TO.N,VCC*%
X213577500Y-124383800D03*
%TO.P,U13,6*%
%TO.N,Net-(U13-Pad13)*%
X213577500Y-126923800D03*
%TO.P,U13,7,GND*%
%TO.N,GND*%
X213577500Y-129463800D03*
%TO.P,U13,8*%
%TO.N,Net-(U13-Pad12)*%
X221197500Y-129463800D03*
%TO.P,U13,9*%
%TO.N,Net-(U13-Pad3)*%
X221197500Y-126923800D03*
%TO.P,U13,10*%
%TO.N,Net-(U13-Pad10)*%
X221197500Y-124383800D03*
%TO.P,U13,11*%
X221197500Y-121843800D03*
%TO.P,U13,12*%
%TO.N,Net-(U13-Pad12)*%
X221197500Y-119303800D03*
%TO.P,U13,13*%
%TO.N,Net-(U13-Pad13)*%
X221197500Y-116763800D03*
%TO.P,U13,14,VCC*%
%TO.N,VCC*%
X221197500Y-114223800D03*
%TD*%
D21*
%TO.P,U28,1*%
%TO.N,VCC*%
X255800000Y-214840000D03*
D22*
%TO.P,U28,2*%
%TO.N,CS_SPI*%
X255800000Y-217380000D03*
%TO.P,U28,3*%
%TO.N,Net-(U28-Pad3)*%
X255800000Y-219920000D03*
%TO.P,U28,4*%
%TO.N,CLK_SPI*%
X255800000Y-222460000D03*
%TO.P,U28,5*%
%TO.N,VCC*%
X255800000Y-225000000D03*
%TO.P,U28,6*%
%TO.N,Net-(U28-Pad6)*%
X255800000Y-227540000D03*
%TO.P,U28,7,GND*%
%TO.N,GND*%
X255800000Y-230080000D03*
%TO.P,U28,8*%
%TO.N,unconnected-(U28-Pad8)*%
X263420000Y-230080000D03*
%TO.P,U28,9*%
%TO.N,GND*%
X263420000Y-227540000D03*
%TO.P,U28,10*%
X263420000Y-225000000D03*
%TO.P,U28,11*%
%TO.N,unconnected-(U28-Pad11)*%
X263420000Y-222460000D03*
%TO.P,U28,12*%
%TO.N,GND*%
X263420000Y-219920000D03*
%TO.P,U28,13*%
X263420000Y-217380000D03*
%TO.P,U28,14,VCC*%
%TO.N,VCC*%
X263420000Y-214840000D03*
%TD*%
D28*
%TO.P,T1,*%
%TO.N,*%
X190754000Y-89544000D03*
X190754000Y-29464000D03*
D29*
%TO.P,T1,1,AA*%
%TO.N,N/C*%
X170434000Y-44704000D03*
%TO.P,T1,2,AB*%
X170434000Y-75184000D03*
%TO.P,T1,3,SA*%
X211074000Y-44704000D03*
%TO.P,T1,4,SC*%
%TO.N,Earth*%
X211074000Y-59944000D03*
%TO.P,T1,5,SB*%
%TO.N,N/C*%
X211074000Y-75184000D03*
%TD*%
D13*
%TO.P,R50,1*%
%TO.N,Net-(R47-Pad2)*%
X315585000Y-79425000D03*
D17*
%TO.P,R50,2*%
%TO.N,-2.5V*%
X325745000Y-79425000D03*
%TD*%
D13*
%TO.P,R55,1*%
%TO.N,Net-(R55-Pad1)*%
X270390000Y-85025000D03*
D17*
%TO.P,R55,2*%
%TO.N,IN-4A*%
X280550000Y-85025000D03*
%TD*%
D30*
%TO.P,U7,1,A0*%
%TO.N,GND*%
X118897500Y-238543800D03*
%TO.P,U7,2,A1*%
X118897500Y-241083800D03*
%TO.P,U7,3,A2*%
X118897500Y-243623800D03*
%TO.P,U7,4,GND*%
X118897500Y-246163800D03*
%TO.P,U7,5,SDA*%
%TO.N,PA0*%
X127787500Y-246163800D03*
%TO.P,U7,6,SCL*%
%TO.N,PA1*%
X127787500Y-243623800D03*
%TO.P,U7,7,WP*%
%TO.N,WP2*%
X127787500Y-241083800D03*
%TO.P,U7,8,VCC*%
%TO.N,VCC*%
X127787500Y-238543800D03*
%TD*%
D27*
%TO.P,XTAL1,1,1*%
%TO.N,CLOCK*%
X111626900Y-114479000D03*
%TO.P,XTAL1,2,2*%
%TO.N,XTAL*%
X116526900Y-114479000D03*
%TD*%
D13*
%TO.P,R11,1*%
%TO.N,VCC*%
X80482500Y-159966800D03*
D17*
%TO.P,R11,2*%
%TO.N,Net-(D7-Pad2)*%
X80482500Y-149806800D03*
%TD*%
D13*
%TO.P,R28,1*%
%TO.N,Net-(C32-Pad1)*%
X303655000Y-88575000D03*
D17*
%TO.P,R28,2*%
%TO.N,Net-(R28-Pad2)*%
X293495000Y-88575000D03*
%TD*%
D24*
%TO.P,J34,1,Pin_1*%
%TO.N,Net-(J34-Pad1)*%
X121057500Y-187143800D03*
D25*
%TO.P,J34,2,Pin_2*%
%TO.N,EF4*%
X123597500Y-187143800D03*
%TO.P,J34,3,Pin_3*%
%TO.N,EFx*%
X126137500Y-187143800D03*
%TO.P,J34,4,Pin_4*%
%TO.N,EF3*%
X128677500Y-187143800D03*
%TO.P,J34,5,Pin_5*%
%TO.N,Net-(J34-Pad5)*%
X131217500Y-187143800D03*
%TD*%
D13*
%TO.P,R2,1*%
%TO.N,VCC*%
X136398700Y-125883800D03*
D17*
%TO.P,R2,2*%
%TO.N,Net-(R2-Pad2)*%
X136398700Y-136043800D03*
%TD*%
D13*
%TO.P,R53,1*%
%TO.N,Net-(R52-Pad2)*%
X270365000Y-91100000D03*
D17*
%TO.P,R53,2*%
%TO.N,IN-4B*%
X280525000Y-91100000D03*
%TD*%
D13*
%TO.P,R6,1*%
%TO.N,VCC*%
X356489000Y-77089000D03*
D17*
%TO.P,R6,2*%
%TO.N,Net-(D2-Pad2)*%
X346329000Y-77089000D03*
%TD*%
D21*
%TO.P,U6,1,A14*%
%TO.N,A14*%
X226959000Y-150490000D03*
D22*
%TO.P,U6,2,A12*%
%TO.N,A12*%
X226959000Y-153030000D03*
%TO.P,U6,3,A7*%
%TO.N,A7*%
X226959000Y-155570000D03*
%TO.P,U6,4,A6*%
%TO.N,A6*%
X226959000Y-158110000D03*
%TO.P,U6,5,A5*%
%TO.N,A5*%
X226959000Y-160650000D03*
%TO.P,U6,6,A4*%
%TO.N,A4*%
X226959000Y-163190000D03*
%TO.P,U6,7,A3*%
%TO.N,A3*%
X226959000Y-165730000D03*
%TO.P,U6,8,A2*%
%TO.N,A2*%
X226959000Y-168270000D03*
%TO.P,U6,9,A1*%
%TO.N,A1*%
X226959000Y-170810000D03*
%TO.P,U6,10,A0*%
%TO.N,A0*%
X226959000Y-173350000D03*
%TO.P,U6,11,Q0*%
%TO.N,D0*%
X226959000Y-175890000D03*
%TO.P,U6,12,Q1*%
%TO.N,D1*%
X226959000Y-178430000D03*
%TO.P,U6,13,Q2*%
%TO.N,D2*%
X226959000Y-180970000D03*
%TO.P,U6,14,GND*%
%TO.N,GND*%
X226959000Y-183510000D03*
%TO.P,U6,15,Q3*%
%TO.N,D3*%
X242199000Y-183510000D03*
%TO.P,U6,16,Q4*%
%TO.N,D4*%
X242199000Y-180970000D03*
%TO.P,U6,17,Q5*%
%TO.N,D5*%
X242199000Y-178430000D03*
%TO.P,U6,18,Q6*%
%TO.N,D6*%
X242199000Y-175890000D03*
%TO.P,U6,19,Q7*%
%TO.N,D7*%
X242199000Y-173350000D03*
%TO.P,U6,20,~{CS}*%
%TO.N,CS_RAM2*%
X242199000Y-170810000D03*
%TO.P,U6,21,A10*%
%TO.N,A10*%
X242199000Y-168270000D03*
%TO.P,U6,22,~{OE}*%
%TO.N,MRD*%
X242199000Y-165730000D03*
%TO.P,U6,23,A11*%
%TO.N,A11*%
X242199000Y-163190000D03*
%TO.P,U6,24,A9*%
%TO.N,A9*%
X242199000Y-160650000D03*
%TO.P,U6,25,A8*%
%TO.N,A8*%
X242199000Y-158110000D03*
%TO.P,U6,26,A13*%
%TO.N,A13*%
X242199000Y-155570000D03*
%TO.P,U6,27,~{WE}*%
%TO.N,Net-(J49-Pad2)*%
X242199000Y-153030000D03*
%TO.P,U6,28,VCC*%
%TO.N,VCC*%
X242199000Y-150490000D03*
%TD*%
D18*
%TO.P,SW3,1,1*%
%TO.N,Net-(C30-Pad2)*%
X169650000Y-202975000D03*
X163150000Y-202975000D03*
%TO.P,SW3,2,2*%
%TO.N,VCC*%
X169650000Y-198475000D03*
X163150000Y-198475000D03*
%TD*%
%TO.P,J23,1,Pin_1*%
%TO.N,TPB*%
X140770000Y-118760000D03*
%TD*%
D13*
%TO.P,C19,1*%
%TO.N,Net-(C19-Pad1)*%
X309760000Y-145410000D03*
%TO.P,C19,2*%
%TO.N,GND*%
X309760000Y-147910000D03*
%TD*%
%TO.P,R39,1*%
%TO.N,Net-(R33-Pad1)*%
X248545000Y-96725000D03*
D17*
%TO.P,R39,2*%
%TO.N,Net-(R39-Pad2)*%
X258705000Y-96725000D03*
%TD*%
D21*
%TO.P,U5,1,A14*%
%TO.N,A14*%
X193812000Y-150734000D03*
D22*
%TO.P,U5,2,A12*%
%TO.N,A12*%
X193812000Y-153274000D03*
%TO.P,U5,3,A7*%
%TO.N,A7*%
X193812000Y-155814000D03*
%TO.P,U5,4,A6*%
%TO.N,A6*%
X193812000Y-158354000D03*
%TO.P,U5,5,A5*%
%TO.N,A5*%
X193812000Y-160894000D03*
%TO.P,U5,6,A4*%
%TO.N,A4*%
X193812000Y-163434000D03*
%TO.P,U5,7,A3*%
%TO.N,A3*%
X193812000Y-165974000D03*
%TO.P,U5,8,A2*%
%TO.N,A2*%
X193812000Y-168514000D03*
%TO.P,U5,9,A1*%
%TO.N,A1*%
X193812000Y-171054000D03*
%TO.P,U5,10,A0*%
%TO.N,A0*%
X193812000Y-173594000D03*
%TO.P,U5,11,Q0*%
%TO.N,D0*%
X193812000Y-176134000D03*
%TO.P,U5,12,Q1*%
%TO.N,D1*%
X193812000Y-178674000D03*
%TO.P,U5,13,Q2*%
%TO.N,D2*%
X193812000Y-181214000D03*
%TO.P,U5,14,GND*%
%TO.N,GND*%
X193812000Y-183754000D03*
%TO.P,U5,15,Q3*%
%TO.N,D3*%
X209052000Y-183754000D03*
%TO.P,U5,16,Q4*%
%TO.N,D4*%
X209052000Y-181214000D03*
%TO.P,U5,17,Q5*%
%TO.N,D5*%
X209052000Y-178674000D03*
%TO.P,U5,18,Q6*%
%TO.N,D6*%
X209052000Y-176134000D03*
%TO.P,U5,19,Q7*%
%TO.N,D7*%
X209052000Y-173594000D03*
%TO.P,U5,20,~{CS}*%
%TO.N,CS_RAM1*%
X209052000Y-171054000D03*
%TO.P,U5,21,A10*%
%TO.N,A10*%
X209052000Y-168514000D03*
%TO.P,U5,22,~{OE}*%
%TO.N,MRD*%
X209052000Y-165974000D03*
%TO.P,U5,23,A11*%
%TO.N,A11*%
X209052000Y-163434000D03*
%TO.P,U5,24,A9*%
%TO.N,A9*%
X209052000Y-160894000D03*
%TO.P,U5,25,A8*%
%TO.N,A8*%
X209052000Y-158354000D03*
%TO.P,U5,26,A13*%
%TO.N,A13*%
X209052000Y-155814000D03*
%TO.P,U5,27,~{WE}*%
%TO.N,Net-(J48-Pad2)*%
X209052000Y-153274000D03*
%TO.P,U5,28,VCC*%
%TO.N,VCC*%
X209052000Y-150734000D03*
%TD*%
D13*
%TO.P,R24,1*%
%TO.N,GND*%
X193597500Y-206143800D03*
D17*
%TO.P,R24,2*%
%TO.N,Net-(C29-Pad2)*%
X183437500Y-206143800D03*
%TD*%
D13*
%TO.P,R30,1*%
%TO.N,Net-(C33-Pad1)*%
X258630000Y-87475000D03*
D17*
%TO.P,R30,2*%
%TO.N,Net-(R30-Pad2)*%
X248470000Y-87475000D03*
%TD*%
D18*
%TO.P,J28,1,Pin_1*%
%TO.N,GND*%
X134118100Y-116313800D03*
%TD*%
%TO.P,J45,1,Pin_1*%
%TO.N,PA0*%
X113860000Y-257550000D03*
%TD*%
D31*
%TO.P,U12,1,GND*%
%TO.N,GND*%
X317670000Y-26246000D03*
D32*
%TO.P,U12,2,VI*%
%TO.N,Net-(C16-Pad2)*%
X320210000Y-26246000D03*
%TO.P,U12,3,VO*%
%TO.N,VCC_-12V*%
X322750000Y-26246000D03*
%TD*%
D13*
%TO.P,R35,1*%
%TO.N,Net-(R35-Pad1)*%
X248495000Y-84450000D03*
D17*
%TO.P,R35,2*%
%TO.N,Net-(C33-Pad1)*%
X258655000Y-84450000D03*
%TD*%
D13*
%TO.P,R1,1*%
%TO.N,VCC*%
X133300000Y-125883800D03*
D17*
%TO.P,R1,2*%
%TO.N,Net-(R1-Pad2)*%
X133300000Y-136043800D03*
%TD*%
D18*
%TO.P,J12,1,Pin_1*%
%TO.N,GND*%
X75830000Y-139480000D03*
%TD*%
D23*
%TO.P,D9,1,K*%
%TO.N,-2.5V*%
X346950000Y-90360000D03*
D17*
%TO.P,D9,2,A*%
%TO.N,Net-(D9-Pad2)*%
X354570000Y-90360000D03*
%TD*%
D13*
%TO.P,C14,1*%
%TO.N,VCC*%
X356489000Y-81534000D03*
%TO.P,C14,2*%
%TO.N,GND*%
X353989000Y-81534000D03*
%TD*%
%TO.P,C33,1*%
%TO.N,Net-(C33-Pad1)*%
X261050000Y-87650000D03*
%TO.P,C33,2*%
%TO.N,Net-(C33-Pad2)*%
X261050000Y-90150000D03*
%TD*%
D33*
%TO.P,U9,1,IN*%
%TO.N,Net-(C11-Pad1)*%
X356235000Y-35687000D03*
D34*
%TO.P,U9,2,GND*%
%TO.N,GND*%
X356235000Y-38227000D03*
%TO.P,U9,3,OUT*%
%TO.N,VCC_12V*%
X356235000Y-40767000D03*
%TD*%
D13*
%TO.P,R41,1*%
%TO.N,Net-(R35-Pad1)*%
X248520000Y-81400000D03*
D17*
%TO.P,R41,2*%
%TO.N,Net-(R41-Pad2)*%
X258680000Y-81400000D03*
%TD*%
D35*
%TO.P,J44,1,Pin_1*%
%TO.N,Net-(D1-Pad2)*%
X226060000Y-52324000D03*
D36*
%TO.P,J44,2,Pin_2*%
%TO.N,GND*%
X226060000Y-57404000D03*
%TO.P,J44,3,Pin_3*%
%TO.N,Net-(D1-Pad4)*%
X226060000Y-62484000D03*
%TD*%
D18*
%TO.P,J9,1,Pin_1*%
%TO.N,GND*%
X335230000Y-79540000D03*
%TD*%
D13*
%TO.P,C40,1*%
%TO.N,IN-4A*%
X283095000Y-88225000D03*
%TO.P,C40,2*%
%TO.N,IN-4B*%
X283095000Y-90725000D03*
%TD*%
%TO.P,C31,1*%
%TO.N,VCC*%
X160475000Y-199000000D03*
%TO.P,C31,2*%
%TO.N,Net-(C31-Pad2)*%
X160475000Y-201500000D03*
%TD*%
D21*
%TO.P,U30,1*%
%TO.N,Net-(U30-Pad1)*%
X240975000Y-214835000D03*
D22*
%TO.P,U30,2*%
%TO.N,CS_SPI*%
X240975000Y-217375000D03*
%TO.P,U30,3*%
%TO.N,MWR*%
X240975000Y-219915000D03*
%TO.P,U30,4*%
%TO.N,Net-(U30-Pad4)*%
X240975000Y-222455000D03*
%TO.P,U30,5*%
%TO.N,Net-(U30-Pad1)*%
X240975000Y-224995000D03*
%TO.P,U30,6*%
%TO.N,CLK_SPI*%
X240975000Y-227535000D03*
%TO.P,U30,7,GND*%
%TO.N,GND*%
X240975000Y-230075000D03*
%TO.P,U30,8*%
%TO.N,Net-(U30-Pad4)*%
X248595000Y-230075000D03*
%TO.P,U30,9*%
%TO.N,GND*%
X248595000Y-227535000D03*
%TO.P,U30,10*%
%TO.N,Net-(U30-Pad10)*%
X248595000Y-224995000D03*
%TO.P,U30,11*%
%TO.N,GND*%
X248595000Y-222455000D03*
%TO.P,U30,12*%
X248595000Y-219915000D03*
%TO.P,U30,13*%
%TO.N,unconnected-(U30-Pad13)*%
X248595000Y-217375000D03*
%TO.P,U30,14,VCC*%
%TO.N,VCC*%
X248595000Y-214835000D03*
%TD*%
D13*
%TO.P,R33,1*%
%TO.N,Net-(R33-Pad1)*%
X248520000Y-93700000D03*
D17*
%TO.P,R33,2*%
%TO.N,Net-(C33-Pad2)*%
X258680000Y-93700000D03*
%TD*%
D24*
%TO.P,J35,1,Pin_1*%
%TO.N,GND*%
X253620000Y-242425000D03*
D25*
%TO.P,J35,2,Pin_2*%
%TO.N,VCC*%
X256160000Y-242425000D03*
%TO.P,J35,3,Pin_3*%
%TO.N,MISO*%
X258700000Y-242425000D03*
%TO.P,J35,4,Pin_4*%
%TO.N,MOSI*%
X261240000Y-242425000D03*
%TO.P,J35,5,Pin_5*%
%TO.N,CLK_SPI*%
X263780000Y-242425000D03*
%TO.P,J35,6,Pin_6*%
%TO.N,PC6*%
X266320000Y-242425000D03*
%TD*%
D13*
%TO.P,R25,1*%
%TO.N,GND*%
X193697500Y-209543800D03*
D17*
%TO.P,R25,2*%
%TO.N,Net-(C30-Pad2)*%
X183537500Y-209543800D03*
%TD*%
D37*
%TO.P,F1,1*%
%TO.N,Net-(F1-Pad1)*%
X124294000Y-29035000D03*
X118294000Y-29035000D03*
D38*
%TO.P,F1,2*%
%TO.N,Net-(F1-Pad2)*%
X140294000Y-29035000D03*
X134294000Y-29035000D03*
%TD*%
D13*
%TO.P,C34,1*%
%TO.N,VCC*%
X266350000Y-215000000D03*
%TO.P,C34,2*%
%TO.N,GND*%
X266350000Y-217500000D03*
%TD*%
%TO.P,R52,1*%
%TO.N,IN-4A*%
X280525000Y-88075000D03*
D17*
%TO.P,R52,2*%
%TO.N,Net-(R52-Pad2)*%
X270365000Y-88075000D03*
%TD*%
D13*
%TO.P,R26,1*%
%TO.N,GND*%
X193657500Y-212943800D03*
D17*
%TO.P,R26,2*%
%TO.N,Net-(C31-Pad2)*%
X183497500Y-212943800D03*
%TD*%
D23*
%TO.P,C13,1*%
%TO.N,VCC_12V*%
X355539112Y-61849000D03*
D13*
%TO.P,C13,2*%
%TO.N,GND*%
X353539112Y-61849000D03*
%TD*%
%TO.P,C26,1*%
%TO.N,VCC*%
X74420000Y-202350000D03*
%TO.P,C26,2*%
%TO.N,GND*%
X74420000Y-199850000D03*
%TD*%
D23*
%TO.P,D8,1,K*%
%TO.N,Net-(D8-Pad1)*%
X344500000Y-90175000D03*
D17*
%TO.P,D8,2,A*%
%TO.N,GND*%
X336880000Y-90175000D03*
%TD*%
D13*
%TO.P,C25,1*%
%TO.N,VCC*%
X77470000Y-185590000D03*
%TO.P,C25,2*%
%TO.N,GND*%
X74970000Y-185590000D03*
%TD*%
%TO.P,R9,1*%
%TO.N,VCC*%
X87403500Y-126443800D03*
D17*
%TO.P,R9,2*%
%TO.N,Net-(D5-Pad2)*%
X87403500Y-116283800D03*
%TD*%
D39*
%TO.P,U17,1*%
%TO.N,Net-(C29-Pad2)*%
X126897500Y-200843800D03*
D40*
%TO.P,U17,2*%
X129437500Y-200843800D03*
%TO.P,U17,3*%
%TO.N,CLEAR*%
X131977500Y-200843800D03*
%TO.P,U17,4*%
%TO.N,Net-(C30-Pad2)*%
X134517500Y-200843800D03*
%TO.P,U17,5*%
X137057500Y-200843800D03*
%TO.P,U17,6*%
%TO.N,EF1*%
X139597500Y-200843800D03*
%TO.P,U17,7,GND*%
%TO.N,GND*%
X142137500Y-200843800D03*
%TO.P,U17,8*%
%TO.N,EF2*%
X142137500Y-193223800D03*
%TO.P,U17,9*%
%TO.N,Net-(C31-Pad2)*%
X139597500Y-193223800D03*
%TO.P,U17,10*%
X137057500Y-193223800D03*
%TO.P,U17,11*%
%TO.N,unconnected-(U17-Pad11)*%
X134517500Y-193223800D03*
%TO.P,U17,12*%
%TO.N,GND*%
X131977500Y-193223800D03*
%TO.P,U17,13*%
X129437500Y-193223800D03*
%TO.P,U17,14,VCC*%
%TO.N,VCC*%
X126897500Y-193223800D03*
%TD*%
D21*
%TO.P,U15,1*%
%TO.N,VCC*%
X276597500Y-152263800D03*
D22*
%TO.P,U15,2*%
%TO.N,A15*%
X276597500Y-154803800D03*
%TO.P,U15,3*%
%TO.N,A15-*%
X276597500Y-157343800D03*
%TO.P,U15,4*%
%TO.N,A15*%
X276597500Y-159883800D03*
%TO.P,U15,5*%
%TO.N,CS_SPI*%
X276597500Y-162423800D03*
%TO.P,U15,6*%
%TO.N,CS_RAM1*%
X276597500Y-164963800D03*
%TO.P,U15,7,GND*%
%TO.N,GND*%
X276597500Y-167503800D03*
%TO.P,U15,8*%
%TO.N,Net-(U15-Pad13)*%
X284217500Y-167503800D03*
%TO.P,U15,9*%
%TO.N,PC0*%
X284217500Y-164963800D03*
%TO.P,U15,10*%
%TO.N,VCC*%
X284217500Y-162423800D03*
%TO.P,U15,11*%
%TO.N,CS_EEPROM*%
X284217500Y-159883800D03*
%TO.P,U15,12*%
%TO.N,A15-*%
X284217500Y-157343800D03*
%TO.P,U15,13*%
%TO.N,Net-(U15-Pad13)*%
X284217500Y-154803800D03*
%TO.P,U15,14,VCC*%
%TO.N,VCC*%
X284217500Y-152263800D03*
%TD*%
D13*
%TO.P,R19,1*%
%TO.N,GND*%
X152400000Y-241100000D03*
D17*
%TO.P,R19,2*%
%TO.N,Net-(R17-Pad2)*%
X152400000Y-251260000D03*
%TD*%
D13*
%TO.P,R17,1*%
%TO.N,PB0*%
X182100000Y-243440000D03*
D17*
%TO.P,R17,2*%
%TO.N,Net-(R17-Pad2)*%
X182100000Y-253600000D03*
%TD*%
D13*
%TO.P,R49,1*%
%TO.N,Net-(R39-Pad2)*%
X258750000Y-99850000D03*
D17*
%TO.P,R49,2*%
%TO.N,ACH1*%
X248590000Y-99850000D03*
%TD*%
D18*
%TO.P,J53,1,Pin_1*%
%TO.N,CLK_SPI*%
X237820000Y-255900000D03*
%TD*%
D13*
%TO.P,R31,1*%
%TO.N,Net-(R30-Pad2)*%
X248520000Y-90525000D03*
D17*
%TO.P,R31,2*%
%TO.N,Net-(C33-Pad2)*%
X258680000Y-90525000D03*
%TD*%
D18*
%TO.P,J4,1,Pin_1*%
%TO.N,Net-(J4-Pad1)*%
X70104000Y-90932000D03*
%TD*%
D13*
%TO.P,C11,1*%
%TO.N,Net-(C11-Pad1)*%
X288486181Y-27846000D03*
%TO.P,C11,2*%
%TO.N,GND*%
X288486181Y-37846000D03*
%TD*%
%TO.P,C7,1*%
%TO.N,VCC*%
X245310225Y-151689726D03*
%TO.P,C7,2*%
%TO.N,GND*%
X245310225Y-149189726D03*
%TD*%
D24*
%TO.P,J47,1,Pin_1*%
%TO.N,Net-(C32-Pad1)*%
X345580000Y-103300000D03*
D25*
%TO.P,J47,2,Pin_2*%
%TO.N,Net-(C32-Pad2)*%
X345580000Y-105840000D03*
%TO.P,J47,3,Pin_3*%
%TO.N,agnd*%
X345580000Y-108380000D03*
%TO.P,J47,4,Pin_4*%
%TO.N,Net-(C33-Pad1)*%
X345580000Y-110920000D03*
%TO.P,J47,5,Pin_5*%
%TO.N,Net-(C33-Pad2)*%
X345580000Y-113460000D03*
%TO.P,J47,6,Pin_6*%
%TO.N,agnd*%
X345580000Y-116000000D03*
%TO.P,J47,7,Pin_7*%
%TO.N,Net-(C39-Pad1)*%
X345580000Y-118540000D03*
%TO.P,J47,8,Pin_8*%
%TO.N,Net-(C39-Pad2)*%
X345580000Y-121080000D03*
%TO.P,J47,9,Pin_9*%
%TO.N,agnd*%
X345580000Y-123620000D03*
%TO.P,J47,10,Pin_10*%
%TO.N,IN-4A*%
X345580000Y-126160000D03*
%TO.P,J47,11,Pin_11*%
%TO.N,IN-4B*%
X345580000Y-128700000D03*
%TO.P,J47,12,Pin_12*%
%TO.N,agnd*%
X345580000Y-131240000D03*
%TD*%
D13*
%TO.P,R14,1*%
%TO.N,SC1*%
X94007500Y-150065800D03*
D17*
%TO.P,R14,2*%
%TO.N,Net-(R14-Pad2)*%
X83847500Y-150065800D03*
%TD*%
D24*
%TO.P,J39,1,Pin_1*%
%TO.N,Net-(J39-Pad1)*%
X143600000Y-219900000D03*
D25*
%TO.P,J39,2,Pin_2*%
%TO.N,Net-(J39-Pad2)*%
X141060000Y-219900000D03*
%TO.P,J39,3,Pin_3*%
%TO.N,Net-(J39-Pad3)*%
X138520000Y-219900000D03*
%TO.P,J39,4,Pin_4*%
%TO.N,Net-(J39-Pad4)*%
X135980000Y-219900000D03*
%TO.P,J39,5,Pin_5*%
%TO.N,Net-(J39-Pad5)*%
X133440000Y-219900000D03*
%TD*%
D13*
%TO.P,C9,1*%
%TO.N,GND*%
X96297500Y-245043800D03*
%TO.P,C9,2*%
%TO.N,VCC*%
X96297500Y-242543800D03*
%TD*%
D15*
%TO.P,D3,1,K*%
%TO.N,GND*%
X350560000Y-38862000D03*
D16*
%TO.P,D3,2,A*%
%TO.N,Net-(D3-Pad2)*%
X348020000Y-38862000D03*
%TD*%
D24*
%TO.P,J54,1,Pin_1*%
%TO.N,GND*%
X288795000Y-132050000D03*
D25*
%TO.P,J54,2,Pin_2*%
X291335000Y-132050000D03*
%TO.P,J54,3,Pin_3*%
X293875000Y-132050000D03*
%TO.P,J54,4,Pin_4*%
X296415000Y-132050000D03*
%TO.P,J54,5,Pin_5*%
X298955000Y-132050000D03*
%TO.P,J54,6,Pin_6*%
X301495000Y-132050000D03*
%TO.P,J54,7,Pin_7*%
X304035000Y-132050000D03*
%TO.P,J54,8,Pin_8*%
X306575000Y-132050000D03*
%TO.P,J54,9,Pin_9*%
X309115000Y-132050000D03*
%TO.P,J54,10,Pin_10*%
X311655000Y-132050000D03*
%TO.P,J54,11,Pin_11*%
X314195000Y-132050000D03*
%TO.P,J54,12,Pin_12*%
X316735000Y-132050000D03*
%TD*%
D26*
%TO.P,T5,1,E*%
%TO.N,GND*%
X149760000Y-261040000D03*
D27*
%TO.P,T5,2,B*%
%TO.N,Net-(R17-Pad2)*%
X152300000Y-258500000D03*
%TO.P,T5,3,C*%
%TO.N,PA0*%
X154840000Y-261040000D03*
%TD*%
D13*
%TO.P,R48,1*%
%TO.N,Net-(R38-Pad2)*%
X303655000Y-100675000D03*
D17*
%TO.P,R48,2*%
%TO.N,ACH2*%
X293495000Y-100675000D03*
%TD*%
D13*
%TO.P,R34,1*%
%TO.N,Net-(R34-Pad1)*%
X293445000Y-85475000D03*
D17*
%TO.P,R34,2*%
%TO.N,Net-(C32-Pad1)*%
X303605000Y-85475000D03*
%TD*%
D13*
%TO.P,R3,1*%
%TO.N,VCC*%
X139497500Y-125883800D03*
D17*
%TO.P,R3,2*%
%TO.N,Net-(R3-Pad2)*%
X139497500Y-136043800D03*
%TD*%
D13*
%TO.P,C39,1*%
%TO.N,Net-(C39-Pad1)*%
X311770000Y-88850000D03*
%TO.P,C39,2*%
%TO.N,Net-(C39-Pad2)*%
X311770000Y-91350000D03*
%TD*%
D18*
%TO.P,J18,1,Pin_1*%
%TO.N,MWR*%
X142880000Y-140860000D03*
%TD*%
D15*
%TO.P,D7,1,K*%
%TO.N,Net-(D7-Pad1)*%
X75402500Y-152854800D03*
D16*
%TO.P,D7,2,A*%
%TO.N,Net-(D7-Pad2)*%
X75402500Y-150314800D03*
%TD*%
D13*
%TO.P,R54,1*%
%TO.N,Net-(R54-Pad1)*%
X270365000Y-94200000D03*
D17*
%TO.P,R54,2*%
%TO.N,IN-4B*%
X280525000Y-94200000D03*
%TD*%
D41*
%TO.P,RV1,1,1*%
%TO.N,Net-(D8-Pad1)*%
X358610000Y-95910000D03*
%TO.P,RV1,2,2*%
%TO.N,Net-(RV1-Pad2)*%
X358610000Y-93370000D03*
%TO.P,RV1,3,3*%
%TO.N,Net-(D9-Pad2)*%
X358610000Y-90830000D03*
%TD*%
D13*
%TO.P,C15,1*%
%TO.N,VCC_12V*%
X355600000Y-49657000D03*
%TO.P,C15,2*%
%TO.N,GND*%
X353100000Y-49657000D03*
%TD*%
D26*
%TO.P,T4,1,E*%
%TO.N,GND*%
X74150000Y-156850000D03*
D27*
%TO.P,T4,2,B*%
%TO.N,Net-(R14-Pad2)*%
X76690000Y-159390000D03*
%TO.P,T4,3,C*%
%TO.N,Net-(D7-Pad1)*%
X74150000Y-161930000D03*
%TD*%
D13*
%TO.P,R45,1*%
%TO.N,Net-(R41-Pad2)*%
X258725000Y-78275000D03*
D17*
%TO.P,R45,2*%
%TO.N,-2.5V*%
X248565000Y-78275000D03*
%TD*%
D18*
%TO.P,J25,1,Pin_1*%
%TO.N,GND*%
X84660000Y-111490000D03*
%TD*%
D13*
%TO.P,C27,1*%
%TO.N,VCC*%
X267097500Y-148193800D03*
%TO.P,C27,2*%
%TO.N,GND*%
X267097500Y-145693800D03*
%TD*%
D15*
%TO.P,D6,1,K*%
%TO.N,Net-(D6-Pad1)*%
X82069500Y-135587800D03*
D16*
%TO.P,D6,2,A*%
%TO.N,Net-(D6-Pad2)*%
X82069500Y-133047800D03*
%TD*%
D13*
%TO.P,R58,1*%
%TO.N,Net-(R57-Pad2)*%
X280550000Y-78925000D03*
D17*
%TO.P,R58,2*%
%TO.N,-2.5V*%
X270390000Y-78925000D03*
%TD*%
D13*
%TO.P,R29,1*%
%TO.N,Net-(R28-Pad2)*%
X293495000Y-91500000D03*
D17*
%TO.P,R29,2*%
%TO.N,Net-(C32-Pad2)*%
X303655000Y-91500000D03*
%TD*%
D18*
%TO.P,J42,1,Pin_1*%
%TO.N,VCC*%
X343194000Y-70739000D03*
%TD*%
D13*
%TO.P,R51,1*%
%TO.N,Net-(R46-Pad2)*%
X315645000Y-101300000D03*
D17*
%TO.P,R51,2*%
%TO.N,ACH0*%
X325805000Y-101300000D03*
%TD*%
D24*
%TO.P,J49,1,Pin_1*%
%TO.N,VCC*%
X247697500Y-154443800D03*
D25*
%TO.P,J49,2,Pin_2*%
%TO.N,Net-(J49-Pad2)*%
X247697500Y-156983800D03*
%TO.P,J49,3,Pin_3*%
%TO.N,MWR*%
X247697500Y-159523800D03*
%TD*%
D42*
%TO.P,U21,1,FB*%
%TO.N,Net-(RV1-Pad2)*%
X343916000Y-98298000D03*
D43*
%TO.P,U21,2,K*%
%TO.N,GND*%
X346456000Y-98298000D03*
%TO.P,U21,3,A*%
%TO.N,-2.5V*%
X348996000Y-98298000D03*
%TD*%
D24*
%TO.P,J48,1,Pin_1*%
%TO.N,VCC*%
X214697500Y-154063800D03*
D25*
%TO.P,J48,2,Pin_2*%
%TO.N,Net-(J48-Pad2)*%
X214697500Y-156603800D03*
%TO.P,J48,3,Pin_3*%
%TO.N,MWR*%
X214697500Y-159143800D03*
%TD*%
D13*
%TO.P,C17,1*%
%TO.N,GND*%
X265863681Y-28103500D03*
%TO.P,C17,2*%
%TO.N,Net-(C16-Pad2)*%
X265863681Y-38103500D03*
%TD*%
%TO.P,R32,1*%
%TO.N,Net-(R32-Pad1)*%
X293570000Y-94550000D03*
D17*
%TO.P,R32,2*%
%TO.N,Net-(C32-Pad2)*%
X303730000Y-94550000D03*
%TD*%
D13*
%TO.P,C3,1*%
%TO.N,XTAL*%
X122216500Y-115799800D03*
%TO.P,C3,2*%
%TO.N,GND*%
X122216500Y-110799800D03*
%TD*%
D21*
%TO.P,U16,1*%
%TO.N,MRD*%
X207272500Y-202918800D03*
D22*
%TO.P,U16,2*%
%TO.N,VCC*%
X207272500Y-205458800D03*
%TO.P,U16,3*%
%TO.N,Net-(U16-Pad3)*%
X207272500Y-207998800D03*
%TO.P,U16,4*%
%TO.N,CLEAR*%
X207272500Y-210538800D03*
%TO.P,U16,5*%
%TO.N,VCC*%
X207272500Y-213078800D03*
%TO.P,U16,6*%
%TO.N,Net-(U16-Pad6)*%
X207272500Y-215618800D03*
%TO.P,U16,7,GND*%
%TO.N,GND*%
X207272500Y-218158800D03*
%TO.P,U16,8*%
%TO.N,Net-(U16-Pad8)*%
X214892500Y-218158800D03*
%TO.P,U16,9*%
%TO.N,Net-(U16-Pad3)*%
X214892500Y-215618800D03*
%TO.P,U16,10*%
%TO.N,TPB*%
X214892500Y-213078800D03*
%TO.P,U16,11*%
%TO.N,CS_RAM2*%
X214892500Y-210538800D03*
%TO.P,U16,12*%
%TO.N,PC0*%
X214892500Y-207998800D03*
%TO.P,U16,13*%
%TO.N,A15-*%
X214892500Y-205458800D03*
%TO.P,U16,14,VCC*%
%TO.N,VCC*%
X214892500Y-202918800D03*
%TD*%
D18*
%TO.P,J36,1,Pin_1*%
%TO.N,Net-(J36-Pad1)*%
X77724000Y-90932000D03*
%TD*%
D39*
%TO.P,U32,1,P7*%
%TO.N,D7*%
X79120000Y-175220000D03*
D40*
%TO.P,U32,2,Q5*%
%TO.N,unconnected-(U32-Pad2)*%
X81660000Y-175220000D03*
%TO.P,U32,3,Q7*%
%TO.N,Net-(U24-Pad12)*%
X84200000Y-175220000D03*
%TO.P,U32,4,P3*%
%TO.N,D3*%
X86740000Y-175220000D03*
%TO.P,U32,5,P2*%
%TO.N,D2*%
X89280000Y-175220000D03*
%TO.P,U32,6,P1*%
%TO.N,D1*%
X91820000Y-175220000D03*
%TO.P,U32,7,P0*%
%TO.N,D0*%
X94360000Y-175220000D03*
%TO.P,U32,8,Vss*%
%TO.N,GND*%
X96900000Y-175220000D03*
%TO.P,U32,9,PL*%
%TO.N,Net-(U28-Pad3)*%
X96900000Y-167600000D03*
%TO.P,U32,10,CP*%
%TO.N,Net-(U30-Pad10)*%
X94360000Y-167600000D03*
%TO.P,U32,11,DS*%
%TO.N,GND*%
X91820000Y-167600000D03*
%TO.P,U32,12,Q6*%
%TO.N,unconnected-(U32-Pad12)*%
X89280000Y-167600000D03*
%TO.P,U32,13,P4*%
%TO.N,D4*%
X86740000Y-167600000D03*
%TO.P,U32,14,P5*%
%TO.N,D5*%
X84200000Y-167600000D03*
%TO.P,U32,15,P6*%
%TO.N,D6*%
X81660000Y-167600000D03*
%TO.P,U32,16,Vdd*%
%TO.N,VCC*%
X79120000Y-167600000D03*
%TD*%
D13*
%TO.P,C38,1*%
%TO.N,GND*%
X69270000Y-164770000D03*
%TO.P,C38,2*%
%TO.N,VCC*%
X71770000Y-164770000D03*
%TD*%
D26*
%TO.P,T6,1,E*%
%TO.N,GND*%
X183360000Y-261440000D03*
D27*
%TO.P,T6,2,B*%
%TO.N,Net-(R18-Pad2)*%
X185900000Y-258900000D03*
%TO.P,T6,3,C*%
%TO.N,PA1*%
X188440000Y-261440000D03*
%TD*%
D18*
%TO.P,SW4,1,1*%
%TO.N,Net-(C31-Pad2)*%
X157600000Y-202950000D03*
X151100000Y-202950000D03*
%TO.P,SW4,2,2*%
%TO.N,VCC*%
X157600000Y-198450000D03*
X151100000Y-198450000D03*
%TD*%
D13*
%TO.P,C5,1*%
%TO.N,VCC*%
X147997500Y-149543800D03*
%TO.P,C5,2*%
%TO.N,GND*%
X147997500Y-147043800D03*
%TD*%
D39*
%TO.P,U31,1,QB*%
%TO.N,D1*%
X264300000Y-173700000D03*
D40*
%TO.P,U31,2,QC*%
%TO.N,D2*%
X261760000Y-173700000D03*
%TO.P,U31,3,QD*%
%TO.N,D3*%
X259220000Y-173700000D03*
%TO.P,U31,4,QE*%
%TO.N,D4*%
X256680000Y-173700000D03*
%TO.P,U31,5,QF*%
%TO.N,D5*%
X254140000Y-173700000D03*
%TO.P,U31,6,QG*%
%TO.N,D6*%
X251600000Y-173700000D03*
%TO.P,U31,7,QH*%
%TO.N,D7*%
X249060000Y-173700000D03*
%TO.P,U31,8,GND*%
%TO.N,GND*%
X246520000Y-173700000D03*
%TO.P,U31,9,QH'*%
%TO.N,unconnected-(U31-Pad9)*%
X246520000Y-181320000D03*
%TO.P,U31,10,~{SRCLR}*%
%TO.N,VCC*%
X249060000Y-181320000D03*
%TO.P,U31,11,SRCLK*%
%TO.N,Net-(U28-Pad6)*%
X251600000Y-181320000D03*
%TO.P,U31,12,RCLK*%
%TO.N,Net-(U18-Pad1)*%
X254140000Y-181320000D03*
%TO.P,U31,13,~{OE}*%
%TO.N,Net-(U18-Pad4)*%
X256680000Y-181320000D03*
%TO.P,U31,14,SER*%
%TO.N,MISO*%
X259220000Y-181320000D03*
%TO.P,U31,15,QA*%
%TO.N,D0*%
X261760000Y-181320000D03*
%TO.P,U31,16,VCC*%
%TO.N,VCC*%
X264300000Y-181320000D03*
%TD*%
D24*
%TO.P,J33,1,Pin_1*%
%TO.N,Net-(J32-Pad5)*%
X82775000Y-225700000D03*
D25*
%TO.P,J33,2,Pin_2*%
%TO.N,VCC*%
X85315000Y-225700000D03*
%TO.P,J33,3,Pin_3*%
%TO.N,Net-(J32-Pad1)*%
X87855000Y-225700000D03*
%TD*%
D13*
%TO.P,C21,1*%
%TO.N,VCC*%
X272290000Y-179610000D03*
%TO.P,C21,2*%
%TO.N,GND*%
X272290000Y-177110000D03*
%TD*%
D35*
%TO.P,J43,1,Pin_1*%
%TO.N,Net-(F1-Pad2)*%
X149352000Y-43434000D03*
D36*
%TO.P,J43,2,Pin_2*%
%TO.N,unconnected-(J43-Pad2)*%
X149352000Y-48514000D03*
%TO.P,J43,3,Pin_3*%
%TO.N,Net-(J43-Pad3)*%
X149352000Y-53594000D03*
%TD*%
D18*
%TO.P,J8,1,Pin_1*%
%TO.N,VCC*%
X97055500Y-117045800D03*
%TD*%
%TO.P,J10,1,Pin_1*%
%TO.N,GND*%
X222960000Y-252370000D03*
%TD*%
D13*
%TO.P,R42,1*%
%TO.N,Net-(R42-Pad1)*%
X325600000Y-94950000D03*
D17*
%TO.P,R42,2*%
%TO.N,Net-(C39-Pad2)*%
X315440000Y-94950000D03*
%TD*%
D18*
%TO.P,J13,1,Pin_1*%
%TO.N,GND*%
X241100000Y-137930000D03*
%TD*%
%TO.P,J41,1,Pin_1*%
%TO.N,VCC*%
X97730000Y-259490000D03*
%TD*%
D23*
%TO.P,U20,1,PA3*%
%TO.N,Net-(J39-Pad5)*%
X137157500Y-238183800D03*
D17*
%TO.P,U20,2,PA2*%
%TO.N,PA2*%
X139697500Y-238183800D03*
%TO.P,U20,3,PA1*%
%TO.N,PA1*%
X142237500Y-238183800D03*
%TO.P,U20,4,PA0*%
%TO.N,PA0*%
X144777500Y-238183800D03*
%TO.P,U20,5,~{RD}*%
%TO.N,Net-(U16-Pad3)*%
X147317500Y-238183800D03*
%TO.P,U20,6,~{CS}*%
%TO.N,CS_IO*%
X149857500Y-238183800D03*
%TO.P,U20,7,GND*%
%TO.N,GND*%
X152397500Y-238183800D03*
%TO.P,U20,8,A1*%
%TO.N,N1*%
X154937500Y-238183800D03*
%TO.P,U20,9,A0*%
%TO.N,N0*%
X157477500Y-238183800D03*
%TO.P,U20,10,PC7*%
%TO.N,PC7*%
X160017500Y-238183800D03*
%TO.P,U20,11,PC6*%
%TO.N,PC6*%
X162557500Y-238183800D03*
%TO.P,U20,12,PC5*%
%TO.N,Net-(J37-Pad1)*%
X165097500Y-238183800D03*
%TO.P,U20,13,PC4*%
%TO.N,Net-(J37-Pad2)*%
X167637500Y-238183800D03*
%TO.P,U20,14,PC0*%
%TO.N,PC0*%
X170177500Y-238183800D03*
%TO.P,U20,15,PC1*%
%TO.N,Net-(J37-Pad5)*%
X172717500Y-238183800D03*
%TO.P,U20,16,PC2*%
%TO.N,Net-(J37-Pad4)*%
X175257500Y-238183800D03*
%TO.P,U20,17,PC3*%
%TO.N,Net-(J37-Pad3)*%
X177797500Y-238183800D03*
%TO.P,U20,18,PB0*%
%TO.N,PB0*%
X180337500Y-238183800D03*
%TO.P,U20,19,PB1*%
%TO.N,PB1*%
X182877500Y-238183800D03*
%TO.P,U20,20,PB2*%
%TO.N,Net-(J38-Pad6)*%
X185417500Y-238183800D03*
%TO.P,U20,21,PB3*%
%TO.N,Net-(J38-Pad5)*%
X185417500Y-222943800D03*
%TO.P,U20,22,PB4*%
%TO.N,Net-(J38-Pad4)*%
X182877500Y-222943800D03*
%TO.P,U20,23,PB5*%
%TO.N,Net-(J38-Pad3)*%
X180337500Y-222943800D03*
%TO.P,U20,24,PB6*%
%TO.N,Net-(J38-Pad2)*%
X177797500Y-222943800D03*
%TO.P,U20,25,PB7*%
%TO.N,Net-(J38-Pad1)*%
X175257500Y-222943800D03*
%TO.P,U20,26,VCC*%
%TO.N,VCC*%
X172717500Y-222943800D03*
%TO.P,U20,27,D7*%
%TO.N,D7*%
X170177500Y-222943800D03*
%TO.P,U20,28,D6*%
%TO.N,D6*%
X167637500Y-222943800D03*
%TO.P,U20,29,D5*%
%TO.N,D5*%
X165097500Y-222943800D03*
%TO.P,U20,30,D4*%
%TO.N,D4*%
X162557500Y-222943800D03*
%TO.P,U20,31,D3*%
%TO.N,D3*%
X160017500Y-222943800D03*
%TO.P,U20,32,D2*%
%TO.N,D2*%
X157477500Y-222943800D03*
%TO.P,U20,33,D1*%
%TO.N,D1*%
X154937500Y-222943800D03*
%TO.P,U20,34,D0*%
%TO.N,D0*%
X152397500Y-222943800D03*
%TO.P,U20,35,RESET*%
%TO.N,Net-(U16-Pad6)*%
X149857500Y-222943800D03*
%TO.P,U20,36,~{WR}*%
%TO.N,Net-(U16-Pad8)*%
X147317500Y-222943800D03*
%TO.P,U20,37,PA7*%
%TO.N,Net-(J39-Pad1)*%
X144777500Y-222943800D03*
%TO.P,U20,38,PA6*%
%TO.N,Net-(J39-Pad2)*%
X142237500Y-222943800D03*
%TO.P,U20,39,PA5*%
%TO.N,Net-(J39-Pad3)*%
X139697500Y-222943800D03*
%TO.P,U20,40,PA4*%
%TO.N,Net-(J39-Pad4)*%
X137157500Y-222943800D03*
%TD*%
D18*
%TO.P,J5,1,Pin_1*%
%TO.N,XTAL*%
X126498100Y-118091800D03*
%TD*%
%TO.P,J27,1,Pin_1*%
%TO.N,GND*%
X339852000Y-64516000D03*
%TD*%
D24*
%TO.P,J37,1,Pin_1*%
%TO.N,Net-(J37-Pad1)*%
X166772500Y-245143800D03*
D25*
%TO.P,J37,2,Pin_2*%
%TO.N,Net-(J37-Pad2)*%
X169312500Y-245143800D03*
%TO.P,J37,3,Pin_3*%
%TO.N,Net-(J37-Pad3)*%
X171852500Y-245143800D03*
%TO.P,J37,4,Pin_4*%
%TO.N,Net-(J37-Pad4)*%
X174392500Y-245143800D03*
%TO.P,J37,5,Pin_5*%
%TO.N,Net-(J37-Pad5)*%
X176932500Y-245143800D03*
%TD*%
D24*
%TO.P,J50,1,Pin_1*%
%TO.N,VCC*%
X175172500Y-133443800D03*
D25*
%TO.P,J50,2,Pin_2*%
%TO.N,Net-(J50-Pad2)*%
X177712500Y-133443800D03*
%TO.P,J50,3,Pin_3*%
%TO.N,MWR*%
X180252500Y-133443800D03*
%TD*%
D18*
%TO.P,J19,1,Pin_1*%
%TO.N,VCC_12V*%
X342305000Y-40767000D03*
%TD*%
D13*
%TO.P,C10,1*%
%TO.N,VCC*%
X318890000Y-153790000D03*
%TO.P,C10,2*%
%TO.N,GND*%
X316390000Y-153790000D03*
%TD*%
D21*
%TO.P,U1,1,CLOCK*%
%TO.N,CLOCK*%
X107097500Y-128318800D03*
D22*
%TO.P,U1,2,~{WAIT}*%
%TO.N,Net-(R5-Pad2)*%
X107097500Y-130858800D03*
%TO.P,U1,3,~{CLEAR}*%
%TO.N,CLEAR*%
X107097500Y-133398800D03*
%TO.P,U1,4,Q*%
%TO.N,Q*%
X107097500Y-135938800D03*
%TO.P,U1,5,SC1*%
%TO.N,SC1*%
X107097500Y-138478800D03*
%TO.P,U1,6,SC0*%
%TO.N,SC0*%
X107097500Y-141018800D03*
%TO.P,U1,7,~{MRD}*%
%TO.N,MRD*%
X107097500Y-143558800D03*
%TO.P,U1,8,BUS7*%
%TO.N,D7*%
X107097500Y-146098800D03*
%TO.P,U1,9,BUS6*%
%TO.N,D6*%
X107097500Y-148638800D03*
%TO.P,U1,10,BUS5*%
%TO.N,D5*%
X107097500Y-151178800D03*
%TO.P,U1,11,BUS4*%
%TO.N,D4*%
X107097500Y-153718800D03*
%TO.P,U1,12,BUS3*%
%TO.N,D3*%
X107097500Y-156258800D03*
%TO.P,U1,13,BUS2*%
%TO.N,D2*%
X107097500Y-158798800D03*
%TO.P,U1,14,BUS1*%
%TO.N,D1*%
X107097500Y-161338800D03*
%TO.P,U1,15,BUS0*%
%TO.N,D0*%
X107097500Y-163878800D03*
%TO.P,U1,16,VCC*%
%TO.N,VCC*%
X107097500Y-166418800D03*
%TO.P,U1,17,N2*%
%TO.N,N2*%
X107097500Y-168958800D03*
%TO.P,U1,18,N1*%
%TO.N,N1*%
X107097500Y-171498800D03*
%TO.P,U1,19,N0*%
%TO.N,N0*%
X107097500Y-174038800D03*
%TO.P,U1,20,VSS*%
%TO.N,GND*%
X107097500Y-176578800D03*
%TO.P,U1,21,~{EF4}*%
%TO.N,EF4*%
X122337500Y-176578800D03*
%TO.P,U1,22,~{EF3}*%
%TO.N,EF3*%
X122337500Y-174038800D03*
%TO.P,U1,23,~{EF2}*%
%TO.N,EF2*%
X122337500Y-171498800D03*
%TO.P,U1,24,~{EF1}*%
%TO.N,EF1*%
X122337500Y-168958800D03*
%TO.P,U1,25,MA0*%
%TO.N,A0*%
X122337500Y-166418800D03*
%TO.P,U1,26,MA1*%
%TO.N,A1*%
X122337500Y-163878800D03*
%TO.P,U1,27,MA2*%
%TO.N,A2*%
X122337500Y-161338800D03*
%TO.P,U1,28,MA3*%
%TO.N,A3*%
X122337500Y-158798800D03*
%TO.P,U1,29,MA4*%
%TO.N,A4*%
X122337500Y-156258800D03*
%TO.P,U1,30,MA5*%
%TO.N,A5*%
X122337500Y-153718800D03*
%TO.P,U1,31,MA6*%
%TO.N,A6*%
X122337500Y-151178800D03*
%TO.P,U1,32,MA7*%
%TO.N,A7*%
X122337500Y-148638800D03*
%TO.P,U1,33,TPB*%
%TO.N,TPB*%
X122337500Y-146098800D03*
%TO.P,U1,34,TPA*%
%TO.N,TPA*%
X122337500Y-143558800D03*
%TO.P,U1,35,~{MWR}*%
%TO.N,MWR*%
X122337500Y-141018800D03*
%TO.P,U1,36,~{INTERRUPT}*%
%TO.N,Net-(R3-Pad2)*%
X122337500Y-138478800D03*
%TO.P,U1,37,~{DMA_OUT}*%
%TO.N,Net-(R2-Pad2)*%
X122337500Y-135938800D03*
%TO.P,U1,38,~{DMA_IN}*%
%TO.N,Net-(R1-Pad2)*%
X122337500Y-133398800D03*
%TO.P,U1,39,~{XTAL}*%
%TO.N,XTAL*%
X122337500Y-130858800D03*
%TO.P,U1,40,VDD*%
%TO.N,VCC*%
X122337500Y-128318800D03*
%TD*%
D13*
%TO.P,R20,1*%
%TO.N,GND*%
X192000000Y-263280000D03*
D17*
%TO.P,R20,2*%
%TO.N,Net-(R18-Pad2)*%
X192000000Y-253120000D03*
%TD*%
D15*
%TO.P,D4,1,K*%
%TO.N,VCC_-12V*%
X322750000Y-31321000D03*
D16*
%TO.P,D4,2,A*%
%TO.N,Net-(D4-Pad2)*%
X322750000Y-33861000D03*
%TD*%
D39*
%TO.P,U25,1,~{MR}*%
%TO.N,Net-(U24-Pad5)*%
X78500000Y-215820000D03*
D40*
%TO.P,U25,2,CP*%
%TO.N,Net-(U25-Pad2)*%
X81040000Y-215820000D03*
%TO.P,U25,3,D0*%
%TO.N,GND*%
X83580000Y-215820000D03*
%TO.P,U25,4,D1*%
X86120000Y-215820000D03*
%TO.P,U25,5,D2*%
X88660000Y-215820000D03*
%TO.P,U25,6,D3*%
X91200000Y-215820000D03*
%TO.P,U25,7,CEP*%
%TO.N,Net-(U24-Pad5)*%
X93740000Y-215820000D03*
%TO.P,U25,8,GND*%
%TO.N,GND*%
X96280000Y-215820000D03*
%TO.P,U25,9,~{PE}*%
%TO.N,VCC*%
X96280000Y-208200000D03*
%TO.P,U25,10,CET*%
%TO.N,Net-(U24-Pad5)*%
X93740000Y-208200000D03*
%TO.P,U25,11,Q3*%
%TO.N,N/C*%
X91200000Y-208200000D03*
%TO.P,U25,12,Q2*%
%TO.N,unconnected-(U25-Pad12)*%
X88660000Y-208200000D03*
%TO.P,U25,13,Q1*%
%TO.N,unconnected-(U25-Pad13)*%
X86120000Y-208200000D03*
%TO.P,U25,14,Q0*%
%TO.N,CLK_SPI*%
X83580000Y-208200000D03*
%TO.P,U25,15,TC*%
%TO.N,unconnected-(U25-Pad15)*%
X81040000Y-208200000D03*
%TO.P,U25,16,VCC*%
%TO.N,VCC*%
X78500000Y-208200000D03*
%TD*%
D24*
%TO.P,J2,1,Pin_1*%
%TO.N,GND*%
X119957500Y-252443800D03*
D25*
%TO.P,J2,2,Pin_2*%
%TO.N,WP2*%
X122497500Y-252443800D03*
%TO.P,J2,3,Pin_3*%
%TO.N,VCC*%
X125037500Y-252443800D03*
%TD*%
D13*
%TO.P,R23,1*%
%TO.N,EFx*%
X84695000Y-229575000D03*
D17*
%TO.P,R23,2*%
%TO.N,VCC*%
X94855000Y-229575000D03*
%TD*%
D13*
%TO.P,C28,1*%
%TO.N,VCC*%
X279540000Y-209840000D03*
%TO.P,C28,2*%
%TO.N,GND*%
X282040000Y-209840000D03*
%TD*%
%TO.P,R43,1*%
%TO.N,Net-(R43-Pad1)*%
X325650000Y-85575000D03*
D17*
%TO.P,R43,2*%
%TO.N,Net-(C39-Pad1)*%
X315490000Y-85575000D03*
%TD*%
D13*
%TO.P,R59,1*%
%TO.N,Net-(R56-Pad2)*%
X280575000Y-100425000D03*
D17*
%TO.P,R59,2*%
%TO.N,ACH3*%
X270415000Y-100425000D03*
%TD*%
D13*
%TO.P,C32,1*%
%TO.N,Net-(C32-Pad1)*%
X306600000Y-89050000D03*
%TO.P,C32,2*%
%TO.N,Net-(C32-Pad2)*%
X306600000Y-91550000D03*
%TD*%
%TO.P,C24,1*%
%TO.N,VCC*%
X124160000Y-193050000D03*
%TO.P,C24,2*%
%TO.N,GND*%
X124160000Y-190550000D03*
%TD*%
%TO.P,R18,1*%
%TO.N,PB1*%
X185400000Y-243420000D03*
D17*
%TO.P,R18,2*%
%TO.N,Net-(R18-Pad2)*%
X185400000Y-253580000D03*
%TD*%
D13*
%TO.P,C6,1*%
%TO.N,GND*%
X122147500Y-234643800D03*
%TO.P,C6,2*%
%TO.N,VCC*%
X124647500Y-234643800D03*
%TD*%
D18*
%TO.P,J46,1,Pin_1*%
%TO.N,PA1*%
X289130000Y-202060000D03*
%TD*%
%TO.P,J52,1,Pin_1*%
%TO.N,MOSI*%
X235410000Y-264870000D03*
%TD*%
D13*
%TO.P,C23,1*%
%TO.N,VCC*%
X256600000Y-238180000D03*
%TO.P,C23,2*%
%TO.N,GND*%
X254100000Y-238180000D03*
%TD*%
D21*
%TO.P,U3,1,A14*%
%TO.N,A14*%
X163880000Y-150754000D03*
D22*
%TO.P,U3,2,A12*%
%TO.N,A12*%
X163880000Y-153294000D03*
%TO.P,U3,3,A7*%
%TO.N,A7*%
X163880000Y-155834000D03*
%TO.P,U3,4,A6*%
%TO.N,A6*%
X163880000Y-158374000D03*
%TO.P,U3,5,A5*%
%TO.N,A5*%
X163880000Y-160914000D03*
%TO.P,U3,6,A4*%
%TO.N,A4*%
X163880000Y-163454000D03*
%TO.P,U3,7,A3*%
%TO.N,A3*%
X163880000Y-165994000D03*
%TO.P,U3,8,A2*%
%TO.N,A2*%
X163880000Y-168534000D03*
%TO.P,U3,9,A1*%
%TO.N,A1*%
X163880000Y-171074000D03*
%TO.P,U3,10,A0*%
%TO.N,A0*%
X163880000Y-173614000D03*
%TO.P,U3,11,Q0*%
%TO.N,D0*%
X163880000Y-176154000D03*
%TO.P,U3,12,Q1*%
%TO.N,D1*%
X163880000Y-178694000D03*
%TO.P,U3,13,Q2*%
%TO.N,D2*%
X163880000Y-181234000D03*
%TO.P,U3,14,GND*%
%TO.N,GND*%
X163880000Y-183774000D03*
%TO.P,U3,15,Q3*%
%TO.N,D3*%
X179120000Y-183774000D03*
%TO.P,U3,16,Q4*%
%TO.N,D4*%
X179120000Y-181234000D03*
%TO.P,U3,17,Q5*%
%TO.N,D5*%
X179120000Y-178694000D03*
%TO.P,U3,18,Q6*%
%TO.N,D6*%
X179120000Y-176154000D03*
%TO.P,U3,19,Q7*%
%TO.N,D7*%
X179120000Y-173614000D03*
%TO.P,U3,20,~{CS}*%
%TO.N,CS_EEPROM*%
X179120000Y-171074000D03*
%TO.P,U3,21,A10*%
%TO.N,A10*%
X179120000Y-168534000D03*
%TO.P,U3,22,~{OE}*%
%TO.N,MRD*%
X179120000Y-165994000D03*
%TO.P,U3,23,A11*%
%TO.N,A11*%
X179120000Y-163454000D03*
%TO.P,U3,24,A9*%
%TO.N,A9*%
X179120000Y-160914000D03*
%TO.P,U3,25,A8*%
%TO.N,A8*%
X179120000Y-158374000D03*
%TO.P,U3,26,A13*%
%TO.N,A13*%
X179120000Y-155834000D03*
%TO.P,U3,27,~{WE}*%
%TO.N,Net-(J50-Pad2)*%
X179120000Y-153294000D03*
%TO.P,U3,28,VCC*%
%TO.N,VCC*%
X179120000Y-150754000D03*
%TD*%
D21*
%TO.P,U4,1,A0*%
%TO.N,VCC*%
X100172500Y-237343800D03*
D22*
%TO.P,U4,2,A1*%
X100172500Y-239883800D03*
%TO.P,U4,3,A2*%
X100172500Y-242423800D03*
%TO.P,U4,4,GND*%
%TO.N,GND*%
X100172500Y-244963800D03*
%TO.P,U4,5,SDA*%
%TO.N,PA0*%
X107792500Y-244963800D03*
%TO.P,U4,6,SCL*%
%TO.N,PA1*%
X107792500Y-242423800D03*
%TO.P,U4,7,WP*%
%TO.N,WP1*%
X107792500Y-239883800D03*
%TO.P,U4,8,VCC*%
%TO.N,VCC*%
X107792500Y-237343800D03*
%TD*%
D13*
%TO.P,R8,1*%
%TO.N,GND*%
X313225000Y-24341000D03*
D17*
%TO.P,R8,2*%
%TO.N,Net-(D4-Pad2)*%
X313225000Y-34501000D03*
%TD*%
D13*
%TO.P,R15,1*%
%TO.N,PA1*%
X135400000Y-255400000D03*
D17*
%TO.P,R15,2*%
%TO.N,VCC*%
X125240000Y-255400000D03*
%TD*%
D13*
%TO.P,R38,1*%
%TO.N,Net-(R32-Pad1)*%
X293495000Y-97575000D03*
D17*
%TO.P,R38,2*%
%TO.N,Net-(R38-Pad2)*%
X303655000Y-97575000D03*
%TD*%
D13*
%TO.P,C37,1*%
%TO.N,GND*%
X65790000Y-224860000D03*
%TO.P,C37,2*%
%TO.N,VCC*%
X65790000Y-227360000D03*
%TD*%
%TO.P,R37,1*%
%TO.N,Net-(R36-Pad2)*%
X325750000Y-91775000D03*
D17*
%TO.P,R37,2*%
%TO.N,Net-(C39-Pad2)*%
X315590000Y-91775000D03*
%TD*%
D13*
%TO.P,R10,1*%
%TO.N,VCC*%
X86895500Y-142191800D03*
D17*
%TO.P,R10,2*%
%TO.N,Net-(D6-Pad2)*%
X86895500Y-132031800D03*
%TD*%
D13*
%TO.P,C4,1*%
%TO.N,VCC*%
X181700000Y-150100000D03*
%TO.P,C4,2*%
%TO.N,GND*%
X181700000Y-147600000D03*
%TD*%
%TO.P,R60,1*%
%TO.N,-2.5V*%
X332100000Y-61810000D03*
D17*
%TO.P,R60,2*%
%TO.N,VCC_-12V*%
X332100000Y-51650000D03*
%TD*%
D39*
%TO.P,U8,1,VDD*%
%TO.N,VCC*%
X322795000Y-153795000D03*
D40*
%TO.P,U8,2,VDD*%
X325335000Y-153795000D03*
%TO.P,U8,3,N.C.*%
%TO.N,unconnected-(U8-Pad3)*%
X327875000Y-153795000D03*
%TO.P,U8,4,DGND*%
%TO.N,GND*%
X330415000Y-153795000D03*
%TO.P,U8,5,SCL*%
%TO.N,PA1*%
X332955000Y-153795000D03*
%TO.P,U8,6,A0*%
%TO.N,GND*%
X335495000Y-153795000D03*
%TO.P,U8,7,SDA*%
%TO.N,PA0*%
X338035000Y-153795000D03*
%TO.P,U8,8,A2*%
%TO.N,GND*%
X340575000Y-153795000D03*
%TO.P,U8,9,N.C.*%
%TO.N,unconnected-(U8-Pad9)*%
X343115000Y-153795000D03*
%TO.P,U8,10,A1*%
%TO.N,GND*%
X345655000Y-153795000D03*
%TO.P,U8,11,SHDN*%
%TO.N,VCC*%
X348195000Y-153795000D03*
%TO.P,U8,12,AGND*%
%TO.N,agnd*%
X350735000Y-153795000D03*
%TO.P,U8,13,CH0*%
%TO.N,ACH0*%
X350735000Y-146175000D03*
%TO.P,U8,14,CH1*%
%TO.N,ACH1*%
X348195000Y-146175000D03*
%TO.P,U8,15,CH2*%
%TO.N,ACH2*%
X345655000Y-146175000D03*
%TO.P,U8,16,CH3*%
%TO.N,ACH3*%
X343115000Y-146175000D03*
%TO.P,U8,17,CH4*%
%TO.N,GND*%
X340575000Y-146175000D03*
%TO.P,U8,18,CH5*%
X338035000Y-146175000D03*
%TO.P,U8,19,CH6*%
X335495000Y-146175000D03*
%TO.P,U8,20,CH7*%
X332955000Y-146175000D03*
%TO.P,U8,21,REF*%
%TO.N,Net-(C20-Pad1)*%
X330415000Y-146175000D03*
%TO.P,U8,22,N.C.*%
%TO.N,unconnected-(U8-Pad22)*%
X327875000Y-146175000D03*
%TO.P,U8,23,REFADJ*%
%TO.N,Net-(C19-Pad1)*%
X325335000Y-146175000D03*
%TO.P,U8,24,N.C.*%
%TO.N,unconnected-(U8-Pad24)*%
X322795000Y-146175000D03*
%TD*%
D13*
%TO.P,R13,1*%
%TO.N,SC0*%
X90197500Y-142191800D03*
D17*
%TO.P,R13,2*%
%TO.N,Net-(R13-Pad2)*%
X90197500Y-132031800D03*
%TD*%
D39*
%TO.P,U11,1*%
%TO.N,ACH2*%
X312700000Y-58600000D03*
D40*
%TO.P,U11,2,-*%
%TO.N,Net-(R38-Pad2)*%
X315240000Y-58600000D03*
%TO.P,U11,3,+*%
%TO.N,Net-(R40-Pad2)*%
X317780000Y-58600000D03*
%TO.P,U11,4,V+*%
%TO.N,VCC_12V*%
X320320000Y-58600000D03*
%TO.P,U11,5,+*%
%TO.N,Net-(R41-Pad2)*%
X322860000Y-58600000D03*
%TO.P,U11,6,-*%
%TO.N,Net-(R39-Pad2)*%
X325400000Y-58600000D03*
%TO.P,U11,7*%
%TO.N,ACH1*%
X327940000Y-58600000D03*
%TO.P,U11,8*%
%TO.N,ACH0*%
X327940000Y-50980000D03*
%TO.P,U11,9,-*%
%TO.N,Net-(R46-Pad2)*%
X325400000Y-50980000D03*
%TO.P,U11,10,+*%
%TO.N,Net-(R47-Pad2)*%
X322860000Y-50980000D03*
%TO.P,U11,11,V-*%
%TO.N,VCC_-12V*%
X320320000Y-50980000D03*
%TO.P,U11,12,+*%
%TO.N,Net-(R57-Pad2)*%
X317780000Y-50980000D03*
%TO.P,U11,13,-*%
%TO.N,Net-(R56-Pad2)*%
X315240000Y-50980000D03*
%TO.P,U11,14*%
%TO.N,ACH3*%
X312700000Y-50980000D03*
%TD*%
D13*
%TO.P,C35,1*%
%TO.N,GND*%
X72680000Y-181380000D03*
%TO.P,C35,2*%
%TO.N,VCC*%
X72680000Y-178880000D03*
%TD*%
D39*
%TO.P,U29,1,C*%
%TO.N,GND*%
X80875000Y-202825000D03*
D40*
%TO.P,U29,2,~{R}*%
X83415000Y-202825000D03*
%TO.P,U29,3,K*%
X85955000Y-202825000D03*
%TO.P,U29,4,VCC*%
%TO.N,VCC*%
X88495000Y-202825000D03*
%TO.P,U29,5,C*%
%TO.N,unconnected-(U25-Pad15)*%
X91035000Y-202825000D03*
%TO.P,U29,6,~{R}*%
%TO.N,Net-(U24-Pad5)*%
X93575000Y-202825000D03*
%TO.P,U29,7,J*%
%TO.N,VCC*%
X96115000Y-202825000D03*
%TO.P,U29,8,~{Q}*%
%TO.N,Net-(U24-Pad1)*%
X96115000Y-195205000D03*
%TO.P,U29,9,Q*%
%TO.N,unconnected-(U29-Pad9)*%
X93575000Y-195205000D03*
%TO.P,U29,10,K*%
%TO.N,VCC*%
X91035000Y-195205000D03*
%TO.P,U29,11,GND*%
%TO.N,GND*%
X88495000Y-195205000D03*
%TO.P,U29,12,Q*%
%TO.N,unconnected-(U29-Pad12)*%
X85955000Y-195205000D03*
%TO.P,U29,13,~{Q}*%
%TO.N,unconnected-(U29-Pad13)*%
X83415000Y-195205000D03*
%TO.P,U29,14,J*%
%TO.N,GND*%
X80875000Y-195205000D03*
%TD*%
D39*
%TO.P,U24,1,~{R}*%
%TO.N,Net-(U24-Pad1)*%
X81375000Y-189525000D03*
D40*
%TO.P,U24,2,D*%
%TO.N,VCC*%
X83915000Y-189525000D03*
%TO.P,U24,3,C*%
%TO.N,PC7*%
X86455000Y-189525000D03*
%TO.P,U24,4,~{S}*%
%TO.N,VCC*%
X88995000Y-189525000D03*
%TO.P,U24,5,Q*%
%TO.N,Net-(U24-Pad5)*%
X91535000Y-189525000D03*
%TO.P,U24,6,~{Q}*%
%TO.N,PA2*%
X94075000Y-189525000D03*
%TO.P,U24,7,GND*%
%TO.N,GND*%
X96615000Y-189525000D03*
%TO.P,U24,8,~{Q}*%
%TO.N,unconnected-(U24-Pad8)*%
X96615000Y-181905000D03*
%TO.P,U24,9,Q*%
%TO.N,MOSI*%
X94075000Y-181905000D03*
%TO.P,U24,10,~{S}*%
%TO.N,VCC*%
X91535000Y-181905000D03*
%TO.P,U24,11,C*%
%TO.N,CLK_SPI*%
X88995000Y-181905000D03*
%TO.P,U24,12,D*%
%TO.N,Net-(U24-Pad12)*%
X86455000Y-181905000D03*
%TO.P,U24,13,~{R}*%
%TO.N,VCC*%
X83915000Y-181905000D03*
%TO.P,U24,14,VCC*%
X81375000Y-181905000D03*
%TD*%
D24*
%TO.P,J32,1,Pin_1*%
%TO.N,Net-(J32-Pad1)*%
X82020000Y-234500000D03*
D25*
%TO.P,J32,2,Pin_2*%
%TO.N,Q*%
X79480000Y-234500000D03*
%TO.P,J32,3,Pin_3*%
%TO.N,EFx*%
X76940000Y-234500000D03*
%TO.P,J32,4,Pin_4*%
%TO.N,VCC*%
X74400000Y-234500000D03*
%TO.P,J32,5,Pin_5*%
%TO.N,Net-(J32-Pad5)*%
X71860000Y-234500000D03*
%TO.P,J32,6,Pin_6*%
%TO.N,GND*%
X69320000Y-234500000D03*
%TD*%
D33*
%TO.P,U10,1,IN*%
%TO.N,VCC_12V*%
X356489000Y-66929000D03*
D34*
%TO.P,U10,2,GND*%
%TO.N,GND*%
X356489000Y-69469000D03*
%TO.P,U10,3,OUT*%
%TO.N,VCC*%
X356489000Y-72009000D03*
%TD*%
D13*
%TO.P,C36,1*%
%TO.N,GND*%
X252030000Y-225630000D03*
%TO.P,C36,2*%
%TO.N,VCC*%
X252030000Y-223130000D03*
%TD*%
D18*
%TO.P,J22,1,Pin_1*%
%TO.N,TPA*%
X202040000Y-134650000D03*
%TD*%
D13*
%TO.P,R7,1*%
%TO.N,VCC_12V*%
X355600000Y-45847000D03*
D17*
%TO.P,R7,2*%
%TO.N,Net-(D3-Pad2)*%
X345440000Y-45847000D03*
%TD*%
D18*
%TO.P,J21,1,Pin_1*%
%TO.N,Q*%
X96100000Y-130900000D03*
%TD*%
D13*
%TO.P,R57,1*%
%TO.N,Net-(R55-Pad1)*%
X270390000Y-81975000D03*
D17*
%TO.P,R57,2*%
%TO.N,Net-(R57-Pad2)*%
X280550000Y-81975000D03*
%TD*%
D13*
%TO.P,R27,1*%
%TO.N,GND*%
X159870000Y-241650000D03*
D17*
%TO.P,R27,2*%
%TO.N,PC0*%
X170030000Y-241650000D03*
%TD*%
D18*
%TO.P,J14,1,Pin_1*%
%TO.N,GND*%
X334580000Y-32520000D03*
%TD*%
D13*
%TO.P,C12,1*%
%TO.N,Net-(C11-Pad1)*%
X303619363Y-24678000D03*
%TO.P,C12,2*%
%TO.N,GND*%
X303619363Y-27178000D03*
%TD*%
D24*
%TO.P,J55,1,Pin_1*%
%TO.N,agnd*%
X353822000Y-134874000D03*
D25*
%TO.P,J55,2,Pin_2*%
%TO.N,GND*%
X356362000Y-134874000D03*
%TD*%
D18*
%TO.P,J15,1,Pin_1*%
%TO.N,GND*%
X142980000Y-257440000D03*
%TD*%
D13*
%TO.P,C1,1*%
%TO.N,VCC*%
X127797500Y-128543800D03*
%TO.P,C1,2*%
%TO.N,GND*%
X127797500Y-126043800D03*
%TD*%
D18*
%TO.P,J51,1,Pin_1*%
%TO.N,MISO*%
X229660000Y-256030000D03*
%TD*%
D13*
%TO.P,R12,1*%
%TO.N,Q*%
X90959500Y-126189800D03*
D17*
%TO.P,R12,2*%
%TO.N,Net-(R12-Pad2)*%
X90959500Y-116029800D03*
%TD*%
D13*
%TO.P,R22,1*%
%TO.N,VCC*%
X160097500Y-189143800D03*
D17*
%TO.P,R22,2*%
%TO.N,Net-(J34-Pad5)*%
X144857500Y-189143800D03*
%TD*%
D13*
%TO.P,C30,1*%
%TO.N,VCC*%
X172450000Y-199300000D03*
%TO.P,C30,2*%
%TO.N,Net-(C30-Pad2)*%
X172450000Y-201800000D03*
%TD*%
%TO.P,R5,1*%
%TO.N,VCC*%
X103097500Y-120363800D03*
D17*
%TO.P,R5,2*%
%TO.N,Net-(R5-Pad2)*%
X103097500Y-130523800D03*
%TD*%
D26*
%TO.P,T3,1,E*%
%TO.N,GND*%
X81473500Y-139387800D03*
D27*
%TO.P,T3,2,B*%
%TO.N,Net-(R13-Pad2)*%
X84013500Y-141927800D03*
%TO.P,T3,3,C*%
%TO.N,Net-(D6-Pad1)*%
X81473500Y-144467800D03*
%TD*%
D13*
%TO.P,C22,1*%
%TO.N,VCC*%
X197610000Y-260140000D03*
%TO.P,C22,2*%
%TO.N,GND*%
X195110000Y-260140000D03*
%TD*%
D44*
%TO.N,*%
X258430000Y-106480000D03*
D45*
X92456000Y-272288000D03*
D44*
X331010000Y-118700000D03*
D45*
X275844000Y-61468000D03*
D44*
X295750000Y-112040000D03*
X298460000Y-112110000D03*
X261890000Y-106420000D03*
D45*
X321310000Y-203708000D03*
D44*
X303590000Y-69410000D03*
X303550000Y-76600000D03*
D45*
X358140000Y-23368000D03*
D44*
X176000000Y-172100000D03*
X287080000Y-90870000D03*
X133500000Y-241500000D03*
X255778000Y-212344000D03*
X285275000Y-212025000D03*
D45*
X70866000Y-110744000D03*
X159258000Y-92710000D03*
X208200000Y-254000000D03*
D44*
X295073047Y-76618476D03*
X286990000Y-88260000D03*
X298150000Y-69375000D03*
X261990000Y-117270000D03*
X315600000Y-121990000D03*
D45*
X160020000Y-27940000D03*
D44*
X258430000Y-106480000D03*
X258980000Y-184060000D03*
X229600000Y-175900000D03*
X295139905Y-69360355D03*
D45*
X349758000Y-267970000D03*
D44*
X258390000Y-117250000D03*
X293470000Y-124270000D03*
%TO.N,VCC*%
X320350000Y-156420000D03*
X100700000Y-205600000D03*
X103000000Y-222400000D03*
X152447500Y-147193800D03*
X200397500Y-205443800D03*
X355360000Y-158700000D03*
X179097500Y-148543800D03*
X175647500Y-127643800D03*
X264450000Y-169650000D03*
X232397500Y-140843800D03*
X278490000Y-212260000D03*
X172597500Y-133443800D03*
X96115000Y-205485000D03*
X258900000Y-148000000D03*
X243640000Y-245770000D03*
X224497500Y-114143800D03*
X169147500Y-219843800D03*
X140597500Y-158843800D03*
X128197500Y-232143800D03*
X224497500Y-110743800D03*
X239447500Y-152693800D03*
X255712000Y-206060000D03*
X211997500Y-153843800D03*
X209797500Y-122043800D03*
X178747500Y-205143800D03*
%TO.N,WP2*%
X124297500Y-249743800D03*
%TO.N,MRD*%
X186447500Y-197693800D03*
X195897500Y-197943800D03*
%TO.N,MWR*%
X178697500Y-129443800D03*
X247597500Y-163493800D03*
X215697500Y-162043800D03*
X266560000Y-193370000D03*
%TO.N,Q*%
X80200000Y-229400000D03*
X95600000Y-135500000D03*
%TO.N,TPA*%
X147147500Y-122943800D03*
X134347500Y-147943800D03*
%TO.N,TPB*%
X222797500Y-212743800D03*
X194297500Y-130743800D03*
X144597500Y-120943800D03*
X127597500Y-142843800D03*
%TO.N,EFx*%
X126137500Y-184262500D03*
X77000000Y-231300000D03*
%TO.N,MISO*%
X286860000Y-184350000D03*
%TO.N,MOSI*%
X93900000Y-177875000D03*
X270250000Y-240450000D03*
X96275000Y-145675000D03*
X96025000Y-138825000D03*
%TO.N,GND*%
X129437500Y-190583800D03*
X193597500Y-203543800D03*
X66200000Y-171400000D03*
X107097500Y-179352500D03*
X85000000Y-191900000D03*
X96525000Y-179175000D03*
X147847500Y-173243800D03*
X233000000Y-175543800D03*
X230797500Y-195143800D03*
X229197500Y-133343800D03*
X77000000Y-171500000D03*
X100497500Y-179352500D03*
X209577500Y-129463800D03*
X143097500Y-205043800D03*
X203397500Y-218343800D03*
X107047500Y-185093800D03*
X102700000Y-192300000D03*
X250253500Y-165887800D03*
X150247500Y-146793800D03*
X118197500Y-234843800D03*
%TO.N,PA1*%
X142347500Y-241093800D03*
X145240000Y-265240000D03*
X145110000Y-270160000D03*
%TO.N,PA0*%
X120590000Y-274120000D03*
X120460000Y-263540000D03*
X133647500Y-245393800D03*
%TO.N,CLEAR*%
X178497500Y-215143800D03*
X198797500Y-214943800D03*
%TO.N,D2*%
X157407300Y-181234000D03*
X261800000Y-176600000D03*
X229800000Y-180900000D03*
X152607000Y-219043800D03*
%TO.N,D1*%
X157547500Y-178593800D03*
X264300000Y-177700000D03*
X229800000Y-178400000D03*
X150007000Y-219043800D03*
%TO.N,D0*%
X157397500Y-176143800D03*
X147207000Y-219143800D03*
X257800000Y-186400000D03*
%TO.N,N2*%
X102200000Y-182800000D03*
X240097500Y-125243800D03*
%TO.N,A5*%
X233200000Y-162200000D03*
X196297500Y-160343800D03*
%TO.N,A8*%
X150197500Y-180943800D03*
X133497500Y-167843800D03*
%TO.N,A9*%
X133497500Y-165643800D03*
X150197500Y-183543800D03*
%TO.N,A10*%
X155697500Y-149743800D03*
X176603500Y-167037800D03*
X134097500Y-162943800D03*
X170659900Y-136713200D03*
%TO.N,A11*%
X134162500Y-160208800D03*
X150097500Y-186343800D03*
%TO.N,A12*%
X134522500Y-157668800D03*
X157447300Y-153294000D03*
X166647500Y-153993800D03*
%TO.N,A13*%
X134197500Y-154943800D03*
X181257100Y-155834000D03*
%TO.N,A14*%
X240297500Y-119943800D03*
X133997500Y-152943800D03*
X219397500Y-139143800D03*
X163880000Y-146496500D03*
%TO.N,A15*%
X134372500Y-150018800D03*
X272397500Y-151143800D03*
%TO.N,CS_EEPROM*%
X291210000Y-160220000D03*
%TO.N,CS_RAM1*%
X211997500Y-186843800D03*
X211797500Y-171743800D03*
%TO.N,CS_RAM2*%
X245600000Y-170800000D03*
X220297500Y-210443800D03*
%TO.N,PC6*%
X161200000Y-268600000D03*
X161150000Y-245850000D03*
%TO.N,CLK_SPI*%
X265875000Y-238400000D03*
X71000000Y-202100000D03*
X259140000Y-222460000D03*
X89000000Y-179000000D03*
%TO.N,Net-(U13-Pad13)*%
X226110000Y-116790000D03*
X226240000Y-108910000D03*
%TO.N,CS_IO*%
X244197500Y-142243800D03*
X226097500Y-197943800D03*
X233300000Y-157400000D03*
X239697500Y-130343800D03*
%TO.N,Net-(U14-Pad11)*%
X240197500Y-122543800D03*
X251397500Y-158243800D03*
D46*
%TO.N,A15-*%
X256197500Y-155902500D03*
D44*
X268497500Y-157143800D03*
X283060000Y-173750000D03*
X266780000Y-191020000D03*
%TO.N,CS_SPI*%
X279550000Y-171300000D03*
X275082000Y-220218000D03*
%TO.N,PC0*%
X225697500Y-216843800D03*
X289120000Y-164960000D03*
X188297500Y-238643800D03*
%TO.N,Net-(U16-Pad6)*%
X188397500Y-234543800D03*
X199297500Y-234143800D03*
%TO.N,Net-(U16-Pad8)*%
X188397500Y-236343800D03*
X199597500Y-236343800D03*
%TO.N,PC7*%
X118700000Y-220500000D03*
X86455000Y-186755000D03*
%TO.N,Net-(J38-Pad6)*%
X185997500Y-232743800D03*
X186047500Y-224993800D03*
%TO.N,Net-(J39-Pad5)*%
X134400000Y-223100000D03*
X134900000Y-238043800D03*
%TO.N,ACH3*%
X274230000Y-122710000D03*
X274025000Y-110425000D03*
%TO.N,ACH2*%
X293495000Y-105175000D03*
%TO.N,ACH1*%
X342630000Y-136830000D03*
X327850000Y-69180000D03*
%TO.N,ACH0*%
X350635000Y-140615000D03*
X278825000Y-114800000D03*
X278710000Y-122530000D03*
%TO.N,Net-(U18-Pad1)*%
X270140000Y-199310000D03*
X243500000Y-199100000D03*
%TO.N,Net-(U18-Pad4)*%
X267900000Y-225960000D03*
X246600000Y-198600000D03*
%TO.N,Net-(U28-Pad6)*%
X240700000Y-199000000D03*
X258200000Y-227300000D03*
%TO.N,Net-(U24-Pad1)*%
X96300000Y-197600000D03*
X81400000Y-186700000D03*
%TO.N,Net-(U28-Pad3)*%
X96900000Y-164300000D03*
X253000000Y-219200000D03*
%TO.N,Net-(U30-Pad10)*%
X245200000Y-228760000D03*
X94360000Y-164440000D03*
%TO.N,PA2*%
X138200000Y-241500000D03*
%TO.N,Net-(J50-Pad2)*%
X181656703Y-153196616D03*
X183597500Y-133543800D03*
%TO.N,Net-(C32-Pad1)*%
X298560000Y-105210000D03*
%TO.N,Net-(C32-Pad2)*%
X295530000Y-105230000D03*
%TO.N,Net-(C39-Pad1)*%
X312640000Y-85680000D03*
%TO.N,Net-(C39-Pad2)*%
X315440000Y-108030000D03*
%TO.N,IN-4A*%
X340970000Y-126190000D03*
%TO.N,IN-4B*%
X341570000Y-128880000D03*
%TO.N,Net-(R38-Pad2)*%
X298150000Y-76625000D03*
%TD*%
D47*
%TO.N,VCC*%
X156947500Y-140843800D02*
X167847500Y-129943800D01*
D48*
X168347500Y-216893800D02*
X168247500Y-216893800D01*
D47*
X211997500Y-159793800D02*
X211997500Y-163243800D01*
X170972500Y-141268800D02*
X173347500Y-143643800D01*
D48*
X245247500Y-166693800D02*
X247347500Y-168793800D01*
X176997500Y-212243800D02*
X179997500Y-212243800D01*
X169147500Y-216893800D02*
X168347500Y-216893800D01*
X263600000Y-170500000D02*
X264450000Y-169650000D01*
X214197500Y-163943800D02*
X215297500Y-163943800D01*
X128197500Y-218143800D02*
X128197500Y-232143800D01*
X212697500Y-163943800D02*
X216297500Y-163943800D01*
X129597500Y-216743800D02*
X128197500Y-218143800D01*
X259197500Y-147843800D02*
X259197500Y-167043800D01*
X169147500Y-219843800D02*
X169147500Y-217893800D01*
X209797500Y-126043800D02*
X211197500Y-127443800D01*
X140597500Y-158843800D02*
X139797500Y-158043800D01*
X184197500Y-216443800D02*
X194497500Y-216443800D01*
X168747500Y-216093800D02*
X169147500Y-216093800D01*
X246697500Y-161793800D02*
X245247500Y-163243800D01*
D47*
X218947500Y-163943800D02*
X216297500Y-163943800D01*
D48*
X168247500Y-216893800D02*
X167747500Y-216893800D01*
X220497500Y-149343800D02*
X220497500Y-159443800D01*
D47*
X322630000Y-158700000D02*
X320350000Y-156420000D01*
D48*
X239397500Y-148543800D02*
X238497500Y-147643800D01*
X211197500Y-129843800D02*
X213397500Y-132043800D01*
X152297500Y-147043800D02*
X152447500Y-147193800D01*
X199797500Y-205443800D02*
X200397500Y-205443800D01*
X145597500Y-218443800D02*
X143897500Y-216743800D01*
X168547500Y-216093800D02*
X168747500Y-215893800D01*
X128197500Y-238133800D02*
X127787500Y-238543800D01*
X216297500Y-163943800D02*
X217497500Y-163943800D01*
D47*
X305420000Y-163140000D02*
X305420000Y-229330000D01*
D48*
X169147500Y-216493800D02*
X169147500Y-217393800D01*
X167747500Y-216893800D02*
X168747500Y-217893800D01*
X169147500Y-216893800D02*
X169147500Y-216493800D01*
X173247500Y-208493800D02*
X173947500Y-209193800D01*
X167747500Y-216893800D02*
X158247500Y-216893800D01*
D47*
X305420000Y-229330000D02*
X286190000Y-248560000D01*
D48*
X259197500Y-167043800D02*
X257447500Y-168793800D01*
X172597500Y-136643800D02*
X179097500Y-143143800D01*
D47*
X220497500Y-162393800D02*
X218947500Y-163943800D01*
D48*
X168747500Y-216093800D02*
X169147500Y-216493800D01*
X222197500Y-147643800D02*
X220497500Y-149343800D01*
D47*
X344880000Y-158700000D02*
X322630000Y-158700000D01*
D48*
X168997500Y-217543800D02*
X169147500Y-217393800D01*
D47*
X212697500Y-163943800D02*
X215297500Y-163943800D01*
D48*
X172847500Y-208893800D02*
X173247500Y-208493800D01*
X172597500Y-133443800D02*
X172597500Y-136643800D01*
D47*
X172597500Y-133443800D02*
X171497500Y-133443800D01*
D48*
X169147500Y-217393800D02*
X169147500Y-216893800D01*
X173947500Y-209193800D02*
X176997500Y-212243800D01*
D47*
X211997500Y-163243800D02*
X212697500Y-163943800D01*
X168647500Y-136293800D02*
X168647500Y-138943800D01*
D48*
X253893800Y-168793800D02*
X248047500Y-168793800D01*
D47*
X246430000Y-248560000D02*
X243640000Y-245770000D01*
X286190000Y-248560000D02*
X246430000Y-248560000D01*
X150497500Y-144543800D02*
X154197500Y-140843800D01*
D48*
X264450000Y-169650000D02*
X264700000Y-169400000D01*
X152297500Y-145743800D02*
X152297500Y-147043800D01*
X168747500Y-217893800D02*
X169147500Y-217893800D01*
X179997500Y-212243800D02*
X184197500Y-216443800D01*
X249297500Y-151243800D02*
X249297500Y-160343800D01*
X168747500Y-215893800D02*
X169147500Y-215893800D01*
X249297500Y-160343800D02*
X247847500Y-161793800D01*
X169147500Y-216093800D02*
X169147500Y-215893800D01*
X168747500Y-216493800D02*
X169147500Y-216493800D01*
X139797500Y-146743800D02*
X141997500Y-144543800D01*
X173647500Y-208093800D02*
X176597500Y-205143800D01*
X231397500Y-132043800D02*
X232397500Y-133043800D01*
X139797500Y-158043800D02*
X139797500Y-146743800D01*
X194497500Y-216443800D02*
X197297500Y-213643800D01*
D47*
X312140000Y-156420000D02*
X305420000Y-163140000D01*
D48*
X168247500Y-216893800D02*
X168697500Y-217343800D01*
X232397500Y-133043800D02*
X232397500Y-140743800D01*
X128197500Y-236043800D02*
X128197500Y-238133800D01*
X168347500Y-216893800D02*
X168747500Y-216493800D01*
D47*
X178747500Y-193593800D02*
X178747500Y-205143800D01*
D48*
X169147500Y-215893800D02*
X169147500Y-212593800D01*
X143897500Y-216743800D02*
X129597500Y-216743800D01*
X147147500Y-144543800D02*
X151097500Y-144543800D01*
X172847500Y-208893800D02*
X173647500Y-208893800D01*
X238497500Y-147643800D02*
X222197500Y-147643800D01*
X168697500Y-217343800D02*
X168897500Y-217543800D01*
X145597500Y-219643800D02*
X145597500Y-218443800D01*
D47*
X154197500Y-140843800D02*
X156947500Y-140843800D01*
D48*
X179097500Y-148543800D02*
X179097500Y-148743800D01*
X169147500Y-216493800D02*
X169147500Y-216093800D01*
X169147500Y-217893800D02*
X169147500Y-217393800D01*
X167747500Y-216893800D02*
X168547500Y-216093800D01*
X239447500Y-152693800D02*
X239397500Y-152643800D01*
D47*
X320350000Y-156420000D02*
X312140000Y-156420000D01*
D48*
X168747500Y-217293800D02*
X168697500Y-217343800D01*
X213397500Y-132043800D02*
X231397500Y-132043800D01*
D47*
X355360000Y-158700000D02*
X344880000Y-158700000D01*
D48*
X215297500Y-163943800D02*
X216297500Y-163943800D01*
X239397500Y-148543800D02*
X240097500Y-147843800D01*
D47*
X173347500Y-143643800D02*
X173347500Y-188193800D01*
D48*
X168897500Y-217543800D02*
X168997500Y-217543800D01*
X247347500Y-168793800D02*
X248047500Y-168793800D01*
D47*
X214197500Y-163943800D02*
X217497500Y-163943800D01*
D48*
X211997500Y-159793800D02*
X211997500Y-161743800D01*
X173247500Y-208493800D02*
X173647500Y-208093800D01*
D47*
X220497500Y-159443800D02*
X220497500Y-162393800D01*
D48*
X257447500Y-168793800D02*
X253893800Y-168793800D01*
X211997500Y-153843800D02*
X211997500Y-159793800D01*
D47*
X173347500Y-188193800D02*
X178747500Y-193593800D01*
D48*
X181607300Y-150160600D02*
X180514300Y-150160600D01*
X169147500Y-212593800D02*
X172847500Y-208893800D01*
D47*
X171497500Y-133443800D02*
X169022500Y-135918800D01*
D48*
X239397500Y-152643800D02*
X239397500Y-148543800D01*
X255600000Y-170500000D02*
X263600000Y-170500000D01*
D47*
X167847500Y-129943800D02*
X173547500Y-129943800D01*
D48*
X211197500Y-127443800D02*
X211197500Y-129843800D01*
X169022500Y-135918800D02*
X168647500Y-136293800D01*
X146897500Y-220943800D02*
X145597500Y-219643800D01*
D47*
X168647500Y-138943800D02*
X170972500Y-141268800D01*
D48*
X240097500Y-147843800D02*
X245897500Y-147843800D01*
X179097500Y-143143800D02*
X179097500Y-148543800D01*
X247847500Y-161793800D02*
X246697500Y-161793800D01*
X245247500Y-163243800D02*
X245247500Y-166693800D01*
X197297500Y-213643800D02*
X197297500Y-207943800D01*
X128197500Y-232143800D02*
X128197500Y-236043800D01*
D47*
X147147500Y-144543800D02*
X150497500Y-144543800D01*
D48*
X141997500Y-144543800D02*
X147147500Y-144543800D01*
X154197500Y-220943800D02*
X146897500Y-220943800D01*
D47*
X173547500Y-129943800D02*
X175797500Y-127693800D01*
D48*
X158247500Y-216893800D02*
X154197500Y-220943800D01*
X168547500Y-216093800D02*
X168747500Y-216093800D01*
X253893800Y-168793800D02*
X255600000Y-170500000D01*
X245897500Y-147843800D02*
X249297500Y-151243800D01*
D47*
X344880000Y-158700000D02*
X343980000Y-158700000D01*
D48*
X176597500Y-205143800D02*
X178747500Y-205143800D01*
X173647500Y-208893800D02*
X173647500Y-208093800D01*
X151097500Y-144543800D02*
X152297500Y-145743800D01*
X209797500Y-122043800D02*
X209797500Y-126043800D01*
X173947500Y-209193800D02*
X173647500Y-208893800D01*
X180514300Y-150160600D02*
X179097500Y-148743800D01*
X168747500Y-216493800D02*
X168747500Y-217293800D01*
X197297500Y-207943800D02*
X199797500Y-205443800D01*
%TO.N,WP2*%
X125257500Y-241083800D02*
X124297500Y-242043800D01*
X124297500Y-242043800D02*
X124297500Y-249743800D01*
X127787500Y-241083800D02*
X125257500Y-241083800D01*
%TO.N,MWR*%
X264660000Y-191470000D02*
X266560000Y-193370000D01*
D49*
X250197500Y-160943800D02*
X250197500Y-160393800D01*
D48*
X260900000Y-145900000D02*
X261800000Y-146800000D01*
X248000000Y-163400000D02*
X247906200Y-163493800D01*
X219197500Y-146743800D02*
X219197500Y-159043800D01*
X267700000Y-171600000D02*
X267700000Y-173100000D01*
X245997500Y-146743800D02*
X247697500Y-148443800D01*
X267700000Y-173100000D02*
X269400000Y-174800000D01*
D49*
X250197500Y-160393800D02*
X250197500Y-150943800D01*
D48*
X269400000Y-185700000D02*
X268500000Y-186600000D01*
X264660000Y-188740000D02*
X264660000Y-191470000D01*
X266900000Y-170800000D02*
X267700000Y-171600000D01*
X268500000Y-186600000D02*
X266800000Y-186600000D01*
X263900000Y-154200000D02*
X266900000Y-157200000D01*
X219197500Y-146743800D02*
X245997500Y-146743800D01*
X261800000Y-146800000D02*
X262500000Y-146800000D01*
X263900000Y-148200000D02*
X263900000Y-154200000D01*
X258200000Y-150200000D02*
X257500000Y-149500000D01*
X201897500Y-129443800D02*
X178697500Y-129443800D01*
X218747500Y-146293800D02*
X201897500Y-129443800D01*
X219197500Y-159043800D02*
X216197500Y-162043800D01*
D49*
X250197500Y-150943800D02*
X247697500Y-148443800D01*
D48*
X216197500Y-162043800D02*
X215697500Y-162043800D01*
X256200000Y-167900000D02*
X258200000Y-165900000D01*
X247847500Y-163743800D02*
X247597500Y-163493800D01*
X257500000Y-149500000D02*
X257500000Y-146200000D01*
X218747500Y-146293800D02*
X219197500Y-146743800D01*
X266800000Y-186600000D02*
X265650000Y-187750000D01*
X257500000Y-146200000D02*
X257800000Y-145900000D01*
X247597500Y-163493800D02*
X247597500Y-166397500D01*
X247906200Y-163493800D02*
X247597500Y-163493800D01*
X258200000Y-165900000D02*
X258200000Y-150200000D01*
X262500000Y-146800000D02*
X263900000Y-148200000D01*
X266900000Y-157200000D02*
X266900000Y-170800000D01*
X252500000Y-167900000D02*
X256200000Y-167900000D01*
X247597500Y-166397500D02*
X248700000Y-167500000D01*
X265650000Y-187750000D02*
X264660000Y-188740000D01*
X248847500Y-163743800D02*
X247847500Y-163743800D01*
X252100000Y-167500000D02*
X252500000Y-167900000D01*
X250197500Y-160393800D02*
X250197500Y-162393800D01*
X250197500Y-162393800D02*
X248847500Y-163743800D01*
X269400000Y-174800000D02*
X269400000Y-185700000D01*
X257800000Y-145900000D02*
X260900000Y-145900000D01*
X248700000Y-167500000D02*
X252100000Y-167500000D01*
%TO.N,Q*%
X80200000Y-229400000D02*
X75050000Y-229400000D01*
X68750000Y-170350000D02*
X76400000Y-162700000D01*
X75050000Y-229400000D02*
X65600000Y-219950000D01*
X65600000Y-178900000D02*
X68750000Y-175750000D01*
X68750000Y-175750000D02*
X68750000Y-170350000D01*
X81800000Y-162700000D02*
X86500000Y-158000000D01*
X65600000Y-219950000D02*
X65600000Y-178900000D01*
X86500000Y-158000000D02*
X86500000Y-149500000D01*
X92000000Y-144000000D02*
X92000000Y-139100000D01*
X86500000Y-149500000D02*
X92000000Y-144000000D01*
X92000000Y-139100000D02*
X95600000Y-135500000D01*
X76400000Y-162700000D02*
X81800000Y-162700000D01*
%TO.N,TPA*%
X147147500Y-132343800D02*
X147147500Y-122943800D01*
X134347500Y-145143800D02*
X147147500Y-132343800D01*
X134347500Y-147943800D02*
X134347500Y-145143800D01*
%TO.N,TPB*%
X222797500Y-212343800D02*
X222797500Y-212743800D01*
X128697500Y-135543800D02*
X128697500Y-141743800D01*
X144597500Y-120943800D02*
X144597500Y-128943800D01*
X143297500Y-130243800D02*
X133997500Y-130243800D01*
X128697500Y-141743800D02*
X127597500Y-142843800D01*
X224847500Y-210293800D02*
X222797500Y-212343800D01*
X224847500Y-204493800D02*
X211097500Y-190743800D01*
X204197500Y-190743800D02*
X201497500Y-188043800D01*
X201497500Y-188043800D02*
X201497500Y-137943800D01*
X211097500Y-190743800D02*
X204197500Y-190743800D01*
X201497500Y-137943800D02*
X194297500Y-130743800D01*
X144597500Y-128943800D02*
X143297500Y-130243800D01*
X224847500Y-210293800D02*
X224847500Y-204493800D01*
X133997500Y-130243800D02*
X128697500Y-135543800D01*
%TO.N,EFx*%
X105200000Y-181300000D02*
X101200000Y-181300000D01*
X106600000Y-188500000D02*
X110400000Y-192300000D01*
X78100000Y-231300000D02*
X77000000Y-231300000D01*
X126200000Y-184200000D02*
X123900000Y-181900000D01*
X99900000Y-184000000D02*
X101600000Y-185700000D01*
X117700000Y-231900000D02*
X86400000Y-231900000D01*
X110400000Y-192300000D02*
X116000000Y-192300000D01*
X101200000Y-181300000D02*
X99900000Y-182600000D01*
X106600000Y-188000000D02*
X106600000Y-188500000D01*
X121400000Y-208400000D02*
X121400000Y-228200000D01*
X105800000Y-181900000D02*
X105200000Y-181300000D01*
X123900000Y-181900000D02*
X105800000Y-181900000D01*
X119500000Y-206500000D02*
X121400000Y-208400000D01*
X121400000Y-228200000D02*
X117700000Y-231900000D01*
X99900000Y-182600000D02*
X99900000Y-184000000D01*
X78900000Y-232100000D02*
X78100000Y-231300000D01*
X86400000Y-231900000D02*
X86200000Y-232100000D01*
X101600000Y-185700000D02*
X104300000Y-185700000D01*
X119500000Y-195800000D02*
X119500000Y-206500000D01*
X116000000Y-192300000D02*
X119500000Y-195800000D01*
X86200000Y-232100000D02*
X78900000Y-232100000D01*
X104300000Y-185700000D02*
X106600000Y-188000000D01*
%TO.N,MOSI*%
X93900000Y-177875000D02*
X90350000Y-177875000D01*
X302325000Y-143600000D02*
X294075000Y-135350000D01*
X77350000Y-165725000D02*
X83950000Y-165725000D01*
X84500000Y-178100000D02*
X76475000Y-178100000D01*
X95600000Y-133925000D02*
X96850000Y-133925000D01*
X92700000Y-111725000D02*
X92700000Y-114550000D01*
X277525000Y-135350000D02*
X275100000Y-135350000D01*
X275100000Y-135350000D02*
X261225000Y-121475000D01*
X175625000Y-113250000D02*
X165350000Y-102975000D01*
X89900000Y-177425000D02*
X85175000Y-177425000D01*
X93475000Y-131800000D02*
X95600000Y-133925000D01*
X294075000Y-135350000D02*
X277525000Y-135350000D01*
X94350000Y-128400000D02*
X93475000Y-129275000D01*
X165350000Y-102975000D02*
X101450000Y-102975000D01*
X83950000Y-165725000D02*
X96275000Y-153400000D01*
X206400000Y-98625000D02*
X197325000Y-107700000D01*
X85175000Y-177425000D02*
X84500000Y-178100000D01*
X97875000Y-134950000D02*
X97875000Y-136975000D01*
X73425000Y-175050000D02*
X73425000Y-169650000D01*
X73425000Y-169650000D02*
X77350000Y-165725000D01*
X92700000Y-119000000D02*
X94900000Y-121200000D01*
X90350000Y-177875000D02*
X89900000Y-177425000D01*
X290400000Y-237575000D02*
X303525000Y-224450000D01*
X248425000Y-107475000D02*
X239575000Y-98625000D01*
X96850000Y-133925000D02*
X97875000Y-134950000D01*
X259850000Y-120100000D02*
X252400000Y-120100000D01*
X94900000Y-121200000D02*
X94900000Y-127850000D01*
X270375000Y-240575000D02*
X287400000Y-240575000D01*
X239575000Y-98625000D02*
X206400000Y-98625000D01*
X92700000Y-114550000D02*
X92700000Y-119000000D01*
X96275000Y-153400000D02*
X96275000Y-145675000D01*
X287400000Y-240575000D02*
X290400000Y-237575000D01*
X303525000Y-224450000D02*
X303525000Y-221525000D01*
X248425000Y-108675000D02*
X248425000Y-107475000D01*
X97875000Y-136975000D02*
X96025000Y-138825000D01*
X303525000Y-144800000D02*
X302325000Y-143600000D01*
X93475000Y-131125000D02*
X93475000Y-131800000D01*
X101450000Y-102975000D02*
X101000000Y-103425000D01*
X248425000Y-116125000D02*
X248425000Y-108675000D01*
X179775000Y-113250000D02*
X175625000Y-113250000D01*
X76475000Y-178100000D02*
X73425000Y-175050000D01*
X197325000Y-107700000D02*
X191775000Y-113250000D01*
X261225000Y-121475000D02*
X259850000Y-120100000D01*
X252400000Y-120100000D02*
X248425000Y-116125000D01*
X101000000Y-103425000D02*
X92700000Y-111725000D01*
X191775000Y-113250000D02*
X179775000Y-113250000D01*
X303525000Y-221525000D02*
X303525000Y-144800000D01*
X93475000Y-129275000D02*
X93475000Y-131125000D01*
X94900000Y-127850000D02*
X94350000Y-128400000D01*
%TO.N,GND*%
X150247500Y-146793800D02*
X150247500Y-157193800D01*
X147847500Y-159593800D02*
X147847500Y-173243800D01*
X118197500Y-232943800D02*
X118197500Y-235143800D01*
X122697500Y-205043800D02*
X122697500Y-228443800D01*
X150247500Y-157193800D02*
X147847500Y-159593800D01*
X107797500Y-186343800D02*
X106897500Y-185443800D01*
X233000000Y-194800000D02*
X232400000Y-195400000D01*
X118197500Y-245463800D02*
X118897500Y-246163800D01*
X122697500Y-228443800D02*
X118197500Y-232943800D01*
X209577500Y-129723800D02*
X209577500Y-129463800D01*
X118897500Y-246163800D02*
X118897500Y-238543800D01*
D47*
X121557500Y-203903800D02*
X122697500Y-205043800D01*
X112037500Y-190583800D02*
X121557500Y-190583800D01*
D48*
X118197500Y-235143800D02*
X118197500Y-245463800D01*
X233000000Y-175543800D02*
X233000000Y-194800000D01*
D47*
X106997500Y-185543800D02*
X107797500Y-186343800D01*
D48*
X193597500Y-203543800D02*
X194997500Y-202143800D01*
X232400000Y-195400000D02*
X231053700Y-195400000D01*
D47*
X109597500Y-188143800D02*
X112037500Y-190583800D01*
X121557500Y-190583800D02*
X121557500Y-203903800D01*
D48*
X231053700Y-195400000D02*
X230797500Y-195143800D01*
X199997500Y-202143800D02*
X202797500Y-204943800D01*
X229197500Y-133343800D02*
X213197500Y-133343800D01*
D47*
X107797500Y-186343800D02*
X109597500Y-188143800D01*
D48*
X202797500Y-217743800D02*
X203397500Y-218343800D01*
X213197500Y-133343800D02*
X209577500Y-129723800D01*
D47*
X122697500Y-205043800D02*
X122997500Y-205343800D01*
X122997500Y-205343800D02*
X143197500Y-205343800D01*
D48*
X100497500Y-179352500D02*
X107097500Y-179352500D01*
X202797500Y-204943800D02*
X202797500Y-217743800D01*
X96525000Y-179175000D02*
X96702500Y-179352500D01*
X203397500Y-218343800D02*
X203697500Y-218643800D01*
D47*
X121557500Y-190583800D02*
X129437500Y-190583800D01*
D48*
X194997500Y-202143800D02*
X199997500Y-202143800D01*
X96702500Y-179352500D02*
X100497500Y-179352500D01*
%TO.N,PA1*%
X142347500Y-241093800D02*
X142397500Y-241043800D01*
X127787500Y-243623800D02*
X139817500Y-243623800D01*
X139817500Y-243623800D02*
X142347500Y-241093800D01*
%TO.N,PA0*%
X127787500Y-246163800D02*
X132877500Y-246163800D01*
X132877500Y-246163800D02*
X133647500Y-245393800D01*
X133647500Y-245393800D02*
X133697500Y-245343800D01*
%TO.N,D2*%
X262900000Y-187500000D02*
X265800000Y-184600000D01*
X266500000Y-184600000D02*
X267500000Y-183600000D01*
X237500000Y-190400000D02*
X241300000Y-190400000D01*
X149407000Y-215843800D02*
X152607000Y-219043800D01*
X157497500Y-190743800D02*
X154797500Y-193443800D01*
X149388300Y-206187000D02*
X149388300Y-215787000D01*
X231200000Y-161200000D02*
X231200000Y-162200000D01*
X157407300Y-183953600D02*
X157497500Y-184043800D01*
X266800000Y-175800000D02*
X262600000Y-175800000D01*
X233000000Y-173200000D02*
X231600000Y-174600000D01*
X267500000Y-183600000D02*
X267500000Y-176500000D01*
X231200000Y-162300000D02*
X233000000Y-164100000D01*
X265800000Y-184600000D02*
X266500000Y-184600000D01*
X241400000Y-190300000D02*
X261600000Y-190300000D01*
X231600000Y-179400000D02*
X230100000Y-180900000D01*
X233000000Y-166500000D02*
X233000000Y-173200000D01*
X233000000Y-166500000D02*
X233000000Y-165800000D01*
X236400000Y-189300000D02*
X237500000Y-190400000D01*
X261600000Y-190300000D02*
X262900000Y-189000000D01*
X231200000Y-161200000D02*
X231200000Y-162300000D01*
X236400000Y-155700000D02*
X236400000Y-189300000D01*
X157497500Y-184043800D02*
X157497500Y-190743800D01*
X149297500Y-196243800D02*
X149297500Y-206096200D01*
X149297500Y-206096200D02*
X149388300Y-206187000D01*
X231200000Y-156200000D02*
X232400000Y-155000000D01*
X267500000Y-176500000D02*
X266800000Y-175800000D01*
X231150000Y-162250000D02*
X231200000Y-162300000D01*
X262900000Y-189000000D02*
X262900000Y-187500000D01*
X241300000Y-190400000D02*
X241400000Y-190300000D01*
X235700000Y-155000000D02*
X236400000Y-155700000D01*
X231600000Y-174600000D02*
X231600000Y-179400000D01*
X233000000Y-164100000D02*
X233000000Y-166500000D01*
X231200000Y-161200000D02*
X231200000Y-156200000D01*
X262600000Y-175800000D02*
X261800000Y-176600000D01*
X157407300Y-181234000D02*
X157407300Y-183953600D01*
X232400000Y-155000000D02*
X235700000Y-155000000D01*
X152097500Y-193443800D02*
X149297500Y-196243800D01*
X154797500Y-193443800D02*
X152097500Y-193443800D01*
%TO.N,D1*%
X237500000Y-187800000D02*
X238500000Y-188800000D01*
X238500000Y-188800000D02*
X259600000Y-188800000D01*
X230900000Y-173700000D02*
X232200000Y-172400000D01*
X156297500Y-189943800D02*
X156297500Y-183243800D01*
X232200000Y-172400000D02*
X232200000Y-164500000D01*
X266300000Y-183000000D02*
X260500000Y-188800000D01*
X264800000Y-177700000D02*
X266300000Y-179200000D01*
X237500000Y-155600000D02*
X237500000Y-187800000D01*
X155897500Y-180243800D02*
X157547500Y-178593800D01*
X148188300Y-217387000D02*
X148188300Y-205387000D01*
X259600000Y-188800000D02*
X260300000Y-188800000D01*
X155897500Y-182843800D02*
X155897500Y-180243800D01*
X260500000Y-188800000D02*
X259600000Y-188800000D01*
X150007000Y-219043800D02*
X148407000Y-217443800D01*
X232200000Y-164500000D02*
X230200000Y-162500000D01*
X232400000Y-153700000D02*
X235600000Y-153700000D01*
X230900000Y-176900000D02*
X230900000Y-173700000D01*
X264300000Y-177700000D02*
X264800000Y-177700000D01*
X148097500Y-195443800D02*
X148097500Y-205296200D01*
X260300000Y-188800000D02*
X260700000Y-188800000D01*
X156297500Y-183243800D02*
X155897500Y-182843800D01*
X148097500Y-195443800D02*
X151297500Y-192243800D01*
X153997500Y-192243800D02*
X156297500Y-189943800D01*
X148097500Y-205296200D02*
X148188300Y-205387000D01*
X148407000Y-217443800D02*
X148207000Y-217443800D01*
X266300000Y-179200000D02*
X266300000Y-183000000D01*
X226959000Y-178430000D02*
X227770000Y-178430000D01*
X151297500Y-192243800D02*
X153997500Y-192243800D01*
X230200000Y-162500000D02*
X230200000Y-155900000D01*
X235600000Y-153700000D02*
X237500000Y-155600000D01*
X230200000Y-155900000D02*
X232400000Y-153700000D01*
X230100000Y-177700000D02*
X230900000Y-176900000D01*
%TO.N,D0*%
X238800000Y-186800000D02*
X238800000Y-155200000D01*
X157297500Y-176143800D02*
X154897500Y-178543800D01*
X236300000Y-152700000D02*
X231200000Y-152700000D01*
X229400000Y-154500000D02*
X229400000Y-162900000D01*
X229400000Y-162900000D02*
X231400000Y-164900000D01*
X231400000Y-164900000D02*
X231400000Y-171700000D01*
X147188300Y-204687000D02*
X147188300Y-204953000D01*
X257800000Y-186400000D02*
X256600000Y-187600000D01*
X238800000Y-155200000D02*
X236300000Y-152700000D01*
X256600000Y-187600000D02*
X255800000Y-187600000D01*
X150497500Y-191343800D02*
X147097500Y-194743800D01*
X152997500Y-191343800D02*
X150497500Y-191343800D01*
X147097500Y-204862200D02*
X147188300Y-204953000D01*
X154897500Y-189443800D02*
X152997500Y-191343800D01*
X154897500Y-178543800D02*
X154897500Y-189443800D01*
X147097500Y-194743800D02*
X147097500Y-204862200D01*
X231400000Y-171700000D02*
X229600000Y-173500000D01*
X157397500Y-176143800D02*
X157297500Y-176143800D01*
X255800000Y-187600000D02*
X239600000Y-187600000D01*
X231200000Y-152700000D02*
X229400000Y-154500000D01*
X147188300Y-204953000D02*
X147188300Y-219087000D01*
X239600000Y-187600000D02*
X238800000Y-186800000D01*
X229600000Y-173500000D02*
X229600000Y-175900000D01*
%TO.N,N2*%
X248897500Y-132343800D02*
X248897500Y-135943800D01*
X241797500Y-125243800D02*
X242197500Y-125643800D01*
X127497500Y-158643800D02*
X125497500Y-160643800D01*
X127497500Y-148743800D02*
X127497500Y-158643800D01*
X242197500Y-125643800D02*
X248897500Y-132343800D01*
X116897500Y-188943800D02*
X112897500Y-188943800D01*
X143097500Y-119243800D02*
X142997500Y-119143800D01*
X132397500Y-191343800D02*
X129997500Y-188943800D01*
X141697500Y-128843800D02*
X132297500Y-128843800D01*
X107797500Y-183243800D02*
X113497500Y-188943800D01*
X248897500Y-139843800D02*
X244897500Y-143843800D01*
X126897500Y-140943800D02*
X124997500Y-142843800D01*
X136397500Y-191343800D02*
X132397500Y-191343800D01*
X124997500Y-146243800D02*
X127497500Y-148743800D01*
D47*
X244897500Y-143843800D02*
X220697500Y-143843800D01*
D48*
X142897500Y-127643800D02*
X141697500Y-128843800D01*
X126897500Y-134243800D02*
X126897500Y-140943800D01*
X124997500Y-142843800D02*
X124997500Y-146243800D01*
X125497500Y-160643800D02*
X125497500Y-176343800D01*
X129997500Y-188943800D02*
X116897500Y-188943800D01*
X136397500Y-189243800D02*
X136397500Y-191343800D01*
X244897500Y-143843800D02*
X244797500Y-143943800D01*
X182597500Y-127043800D02*
X174797500Y-119243800D01*
X129697500Y-180543800D02*
X129697500Y-182543800D01*
X102997500Y-182643800D02*
X103597500Y-183243800D01*
X142897500Y-119243800D02*
X142897500Y-127643800D01*
X212797500Y-136143800D02*
X203697500Y-127043800D01*
X125497500Y-176343800D02*
X129697500Y-180543800D01*
X248897500Y-135943800D02*
X248897500Y-139843800D01*
X212997500Y-136143800D02*
X212797500Y-136143800D01*
X129697500Y-182543800D02*
X136397500Y-189243800D01*
X103597500Y-183243800D02*
X107797500Y-183243800D01*
D47*
X220697500Y-143843800D02*
X212997500Y-136143800D01*
D48*
X113497500Y-188943800D02*
X116897500Y-188943800D01*
X132297500Y-128843800D02*
X126897500Y-134243800D01*
X142997500Y-119143800D02*
X142897500Y-119243800D01*
X174797500Y-119243800D02*
X143097500Y-119243800D01*
X240097500Y-125243800D02*
X241797500Y-125243800D01*
X203697500Y-127043800D02*
X182597500Y-127043800D01*
%TO.N,A5*%
X196297500Y-160343800D02*
X199397500Y-160343800D01*
X222547500Y-203993800D02*
X222547500Y-210293800D01*
X232000000Y-156600000D02*
X232000000Y-158600000D01*
X210397500Y-191843800D02*
X222547500Y-203993800D01*
X232600000Y-156000000D02*
X232000000Y-156600000D01*
X232000000Y-158600000D02*
X233500000Y-160100000D01*
X220697500Y-213197500D02*
X221870650Y-214370650D01*
X233500000Y-160100000D02*
X233500000Y-161300000D01*
X235497500Y-157297500D02*
X234200000Y-156000000D01*
X204197500Y-191843800D02*
X210397500Y-191843800D01*
X200697500Y-188343800D02*
X204197500Y-191843800D01*
X200697500Y-161643800D02*
X200697500Y-188343800D01*
X233200000Y-162200000D02*
X233200000Y-161600000D01*
X235497500Y-202343800D02*
X235497500Y-157297500D01*
X223470650Y-214370650D02*
X235497500Y-202343800D01*
X233200000Y-161600000D02*
X233500000Y-161300000D01*
X222547500Y-210293800D02*
X220697500Y-212143800D01*
X234200000Y-156000000D02*
X232600000Y-156000000D01*
X221870650Y-214370650D02*
X223470650Y-214370650D01*
X199397500Y-160343800D02*
X200697500Y-161643800D01*
X220697500Y-212143800D02*
X220697500Y-213197500D01*
%TO.N,A8*%
X150097500Y-181043800D02*
X150197500Y-180943800D01*
X146697500Y-181043800D02*
X150097500Y-181043800D01*
X131697500Y-172043800D02*
X136097500Y-176443800D01*
X137297500Y-180743800D02*
X138997500Y-180743800D01*
X136097500Y-176443800D02*
X136097500Y-179543800D01*
X136097500Y-179543800D02*
X137297500Y-180743800D01*
X131697500Y-169643800D02*
X131697500Y-172043800D01*
X133497500Y-167843800D02*
X131697500Y-169643800D01*
X146697500Y-181043800D02*
X146397500Y-180743800D01*
X146397500Y-180743800D02*
X138997500Y-180743800D01*
%TO.N,A9*%
X135297500Y-180543800D02*
X137297500Y-182543800D01*
X130797500Y-168443800D02*
X130797500Y-172743800D01*
X149597500Y-182543800D02*
X150197500Y-183143800D01*
X137297500Y-182543800D02*
X149597500Y-182543800D01*
X135297500Y-177243800D02*
X135297500Y-180543800D01*
X133997500Y-165743800D02*
X133497500Y-165743800D01*
X130797500Y-172743800D02*
X135297500Y-177243800D01*
X133497500Y-165743800D02*
X130797500Y-168443800D01*
X150197500Y-183143800D02*
X150197500Y-183543800D01*
%TO.N,A10*%
X176603500Y-167037800D02*
X176597500Y-167043800D01*
X137697500Y-176043800D02*
X137697500Y-178843800D01*
X137697500Y-178843800D02*
X138697500Y-179843800D01*
X135497500Y-173843800D02*
X137697500Y-176043800D01*
X134097500Y-164143800D02*
X135197500Y-165243800D01*
X155797500Y-149843800D02*
X155697500Y-149743800D01*
X135197500Y-168943800D02*
X135497500Y-169243800D01*
X135197500Y-165243800D02*
X135197500Y-168943800D01*
X135497500Y-169243800D02*
X135497500Y-173843800D01*
X145997500Y-179843800D02*
X149597500Y-176243800D01*
X138697500Y-179843800D02*
X145997500Y-179843800D01*
X134097500Y-162943800D02*
X134097500Y-164143800D01*
X149597500Y-160743800D02*
X155797500Y-154543800D01*
X176603500Y-142656800D02*
X176603500Y-167037800D01*
X149597500Y-176243800D02*
X149597500Y-160743800D01*
X170659900Y-136713200D02*
X176603500Y-142656800D01*
X155797500Y-154543800D02*
X155797500Y-149843800D01*
%TO.N,A11*%
X129597500Y-168543800D02*
X129597500Y-173043800D01*
X131197500Y-166943800D02*
X129597500Y-168543800D01*
X134162500Y-160208800D02*
X134162500Y-160978800D01*
X129597500Y-173043800D02*
X133997500Y-177443800D01*
X148797500Y-185043800D02*
X150097500Y-186343800D01*
X133997500Y-181143800D02*
X136497500Y-183643800D01*
X131197500Y-166843800D02*
X131197500Y-166943800D01*
X132197500Y-162943800D02*
X132197500Y-165843800D01*
X132297500Y-162843800D02*
X132197500Y-162943800D01*
X147397500Y-183643800D02*
X150097500Y-186343800D01*
X133997500Y-177443800D02*
X133997500Y-181143800D01*
X132197500Y-165843800D02*
X131197500Y-166843800D01*
X136497500Y-183643800D02*
X147397500Y-183643800D01*
X134162500Y-160978800D02*
X132297500Y-162843800D01*
%TO.N,A12*%
X156997500Y-153743800D02*
X157397500Y-153343800D01*
X156997500Y-155043800D02*
X156997500Y-153743800D01*
X149197500Y-187943800D02*
X151797500Y-187943800D01*
X134197500Y-157343800D02*
X133697500Y-157843800D01*
X128797500Y-162743800D02*
X128797500Y-174043800D01*
X152397500Y-187343800D02*
X152397500Y-180243800D01*
X166497500Y-153843800D02*
X166647500Y-153993800D01*
X150597500Y-178443800D02*
X150597500Y-161443800D01*
X133697500Y-157843800D02*
X128797500Y-162743800D01*
X146497500Y-185243800D02*
X149197500Y-187943800D01*
X151797500Y-187943800D02*
X152397500Y-187343800D01*
X150597500Y-161443800D02*
X156997500Y-155043800D01*
X132797500Y-178043800D02*
X132797500Y-181743800D01*
X132797500Y-181743800D02*
X136297500Y-185243800D01*
X152397500Y-180243800D02*
X150597500Y-178443800D01*
X133697500Y-157843800D02*
X130997500Y-160543800D01*
X136297500Y-185243800D02*
X146497500Y-185243800D01*
X128797500Y-174043800D02*
X132797500Y-178043800D01*
D49*
%TO.N,A13*%
X166197500Y-133443800D02*
X168197500Y-131443800D01*
D48*
X186433300Y-135951200D02*
X186306300Y-135824200D01*
X131797500Y-182043800D02*
X131797500Y-178543800D01*
X158197500Y-155643800D02*
X151897500Y-161943800D01*
X151897500Y-177843800D02*
X153297500Y-179243800D01*
D49*
X186433300Y-150657800D02*
X186433300Y-148679600D01*
D48*
X131797500Y-178543800D02*
X127597500Y-174343800D01*
D49*
X185697500Y-131443800D02*
X186433300Y-132179600D01*
D48*
X127597500Y-161543800D02*
X134197500Y-154943800D01*
X186306300Y-135824200D02*
X186306300Y-134300200D01*
X157397500Y-142243800D02*
X157397500Y-147243800D01*
X166197500Y-133443800D02*
X157397500Y-142243800D01*
X151897500Y-161943800D02*
X151897500Y-177843800D01*
D49*
X181257100Y-155834000D02*
X186433300Y-150657800D01*
D48*
X159397500Y-149243800D02*
X159397500Y-153843800D01*
X127597500Y-174343800D02*
X127597500Y-161543800D01*
X157397500Y-147243800D02*
X159397500Y-149243800D01*
X153297500Y-179243800D02*
X153297500Y-188043800D01*
X151897500Y-189443800D02*
X148997500Y-189443800D01*
X186433300Y-148679600D02*
X186433300Y-135951200D01*
D49*
X168197500Y-131443800D02*
X185697500Y-131443800D01*
D48*
X159397500Y-153843800D02*
X158197500Y-155043800D01*
X153297500Y-188043800D02*
X151897500Y-189443800D01*
D49*
X186433300Y-132179600D02*
X186433300Y-135951200D01*
D48*
X135797500Y-186043800D02*
X131797500Y-182043800D01*
X158197500Y-155043800D02*
X158197500Y-155643800D01*
X148997500Y-189443800D02*
X145597500Y-186043800D01*
X145597500Y-186043800D02*
X135797500Y-186043800D01*
%TO.N,A14*%
X202697500Y-124743800D02*
X212597500Y-134643800D01*
X212597500Y-134643800D02*
X216597500Y-134643800D01*
X153597500Y-162243800D02*
X160597500Y-155243800D01*
X160597500Y-151443800D02*
X163827300Y-148214000D01*
X130797500Y-182443800D02*
X135097500Y-186743800D01*
X135097500Y-186743800D02*
X145197500Y-186743800D01*
X163827300Y-146549200D02*
X163880000Y-146496500D01*
X237597500Y-106543800D02*
X210897500Y-106543800D01*
X160597500Y-155243800D02*
X160597500Y-151443800D01*
X243097500Y-118643800D02*
X243097500Y-112043800D01*
X163827300Y-148214000D02*
X163827300Y-146549200D01*
X153597500Y-177643800D02*
X153597500Y-162243800D01*
X130797500Y-178943800D02*
X130797500Y-182443800D01*
X241797500Y-119943800D02*
X243097500Y-118643800D01*
X130897500Y-156843800D02*
X126597500Y-161143800D01*
X240297500Y-119943800D02*
X241797500Y-119943800D01*
X202697500Y-114743800D02*
X202697500Y-124743800D01*
X216597500Y-134643800D02*
X219397500Y-137443800D01*
X130897500Y-156043800D02*
X130897500Y-156843800D01*
X145197500Y-186743800D02*
X148897500Y-190443800D01*
X210897500Y-106543800D02*
X202697500Y-114743800D01*
X152297500Y-190443800D02*
X153997500Y-188743800D01*
X126597500Y-161143800D02*
X126597500Y-174743800D01*
X126597500Y-174743800D02*
X130797500Y-178943800D01*
X153997500Y-178043800D02*
X153597500Y-177643800D01*
X133997500Y-152943800D02*
X130897500Y-156043800D01*
X148897500Y-190443800D02*
X152297500Y-190443800D01*
X153997500Y-188743800D02*
X153997500Y-178043800D01*
X219397500Y-137443800D02*
X219397500Y-139143800D01*
X243097500Y-112043800D02*
X237597500Y-106543800D01*
%TO.N,A15*%
X146847500Y-120693800D02*
X174147500Y-120693800D01*
X220747500Y-145593800D02*
X244697500Y-145593800D01*
X203447500Y-128293800D02*
X220747500Y-145593800D01*
X132097500Y-148793800D02*
X132097500Y-145843800D01*
X145747500Y-132193800D02*
X145747500Y-121793800D01*
X145747500Y-121793800D02*
X146847500Y-120693800D01*
X181747500Y-128293800D02*
X203447500Y-128293800D01*
X134372500Y-150018800D02*
X134197500Y-150193800D01*
X132097500Y-145843800D02*
X145747500Y-132193800D01*
X133497500Y-150193800D02*
X132097500Y-148793800D01*
X244697500Y-145593800D02*
X249247500Y-141043800D01*
X272667500Y-144113800D02*
X272667500Y-150873800D01*
X174147500Y-120693800D02*
X181747500Y-128293800D01*
X272667500Y-150873800D02*
X272397500Y-151143800D01*
X134197500Y-150193800D02*
X133497500Y-150193800D01*
X249247500Y-141043800D02*
X269597500Y-141043800D01*
X269597500Y-141043800D02*
X272667500Y-144113800D01*
%TO.N,CS_EEPROM*%
X175997500Y-187343800D02*
X181997500Y-193343800D01*
X179120000Y-171074000D02*
X178967300Y-171074000D01*
X218397500Y-209243800D02*
X218397500Y-215143800D01*
X250970000Y-194570000D02*
X269120000Y-194570000D01*
X181997500Y-193343800D02*
X209697500Y-193343800D01*
X236779350Y-204720650D02*
X238200000Y-203300000D01*
X289285000Y-174405000D02*
X289285000Y-170185000D01*
X289620000Y-160220000D02*
X291210000Y-160220000D01*
X223970650Y-216770650D02*
X236020650Y-204720650D01*
X209697500Y-193343800D02*
X219797500Y-203443800D01*
X289285000Y-170185000D02*
X287520000Y-168420000D01*
X175997500Y-171943800D02*
X175997500Y-187343800D01*
X236020650Y-204720650D02*
X236779350Y-204720650D01*
X287520000Y-168420000D02*
X287520000Y-162320000D01*
X219797500Y-203443800D02*
X219797500Y-207843800D01*
X249170650Y-192770650D02*
X250970000Y-194570000D01*
X287520000Y-162320000D02*
X289620000Y-160220000D01*
X269120000Y-194570000D02*
X289285000Y-174405000D01*
X238200000Y-196100000D02*
X241529350Y-192770650D01*
X220024350Y-216770650D02*
X223970650Y-216770650D01*
X241529350Y-192770650D02*
X249170650Y-192770650D01*
X218397500Y-215143800D02*
X220024350Y-216770650D01*
X238200000Y-203300000D02*
X238200000Y-196100000D01*
X219797500Y-207843800D02*
X218397500Y-209243800D01*
%TO.N,CS_RAM2*%
X252400000Y-169800000D02*
X254200000Y-171600000D01*
X235420650Y-203620650D02*
X223470650Y-215570650D01*
X263800000Y-187800000D02*
X263800000Y-189900000D01*
X235579350Y-203620650D02*
X235420650Y-203620650D01*
X248300000Y-169800000D02*
X252400000Y-169800000D01*
X265900000Y-171600000D02*
X266800000Y-172500000D01*
X268400000Y-175000000D02*
X268400000Y-184600000D01*
X268400000Y-184600000D02*
X267400000Y-185600000D01*
X236900000Y-202300000D02*
X235579350Y-203620650D01*
X240900000Y-191700000D02*
X236900000Y-195700000D01*
X219647500Y-214147500D02*
X219647500Y-211093800D01*
X254200000Y-171600000D02*
X265900000Y-171600000D01*
X236900000Y-195700000D02*
X236900000Y-202300000D01*
X263800000Y-189900000D02*
X262000000Y-191700000D01*
X266800000Y-172500000D02*
X266800000Y-173400000D01*
X267400000Y-185600000D02*
X266000000Y-185600000D01*
X266800000Y-173400000D02*
X268400000Y-175000000D01*
X266000000Y-185600000D02*
X263800000Y-187800000D01*
X245600000Y-170800000D02*
X247300000Y-170800000D01*
X221070650Y-215570650D02*
X219647500Y-214147500D01*
X219647500Y-211093800D02*
X220297500Y-210443800D01*
X262000000Y-191700000D02*
X240900000Y-191700000D01*
X247300000Y-170800000D02*
X248300000Y-169800000D01*
X223470650Y-215570650D02*
X221070650Y-215570650D01*
%TO.N,CLK_SPI*%
X247300000Y-109100000D02*
X239000000Y-100800000D01*
X250300000Y-122200000D02*
X247300000Y-119200000D01*
X287900000Y-238400000D02*
X302400000Y-223900000D01*
X261000000Y-226000000D02*
X261000000Y-233800000D01*
X68570000Y-182760000D02*
X68570000Y-179020000D01*
X302400000Y-223900000D02*
X302400000Y-146200000D01*
X239000000Y-100800000D02*
X205500000Y-100800000D01*
X94100000Y-111800000D02*
X94100000Y-119100000D01*
X71000000Y-185900000D02*
X71000000Y-202100000D01*
X69850000Y-177740000D02*
X69850000Y-171260000D01*
X89200000Y-149900000D02*
X101000000Y-138100000D01*
X191900000Y-114400000D02*
X174700000Y-114400000D01*
X261000000Y-233800000D02*
X265600000Y-238400000D01*
X274700000Y-137000000D02*
X259900000Y-122200000D01*
X101000000Y-138100000D02*
X101000000Y-134300000D01*
X71000000Y-202100000D02*
X71000000Y-185190000D01*
X94100000Y-119100000D02*
X94750000Y-119750000D01*
X89000000Y-179000000D02*
X77900000Y-179000000D01*
X265875000Y-238400000D02*
X287900000Y-238400000D01*
X71000000Y-185190000D02*
X68570000Y-182760000D01*
X101000000Y-134300000D02*
X98600000Y-131900000D01*
X69850000Y-171260000D02*
X76610000Y-164500000D01*
X101500000Y-104400000D02*
X94100000Y-111800000D01*
X82000000Y-164500000D02*
X89200000Y-157300000D01*
X247300000Y-119200000D02*
X247300000Y-109100000D01*
X293200000Y-137000000D02*
X274700000Y-137000000D01*
X68570000Y-179020000D02*
X69850000Y-177740000D01*
X302400000Y-146200000D02*
X293200000Y-137000000D01*
X174700000Y-114400000D02*
X164700000Y-104400000D01*
X259140000Y-222460000D02*
X259140000Y-224140000D01*
X94750000Y-119750000D02*
X97200000Y-122200000D01*
X77900000Y-179000000D02*
X71000000Y-185900000D01*
X259140000Y-224140000D02*
X261000000Y-226000000D01*
X98600000Y-131900000D02*
X98600000Y-123600000D01*
X89200000Y-157300000D02*
X89200000Y-149900000D01*
X76610000Y-164500000D02*
X82000000Y-164500000D01*
X205500000Y-100800000D02*
X191900000Y-114400000D01*
X98600000Y-123600000D02*
X94750000Y-119750000D01*
X265600000Y-238400000D02*
X265875000Y-238400000D01*
X259900000Y-122200000D02*
X250300000Y-122200000D01*
X164700000Y-104400000D02*
X101500000Y-104400000D01*
%TO.N,CS_IO*%
X247497500Y-132343800D02*
X247497500Y-137743800D01*
X234250000Y-164550000D02*
X234500000Y-164300000D01*
X247497500Y-138943800D02*
X244197500Y-142243800D01*
X234250000Y-195850000D02*
X234250000Y-164550000D01*
X239697500Y-130343800D02*
X245497500Y-130343800D01*
X232156200Y-197943800D02*
X234250000Y-195850000D01*
X246597500Y-131443800D02*
X247497500Y-132343800D01*
X234500000Y-158600000D02*
X233300000Y-157400000D01*
X226097500Y-197943800D02*
X230243800Y-197943800D01*
X230243800Y-197943800D02*
X232156200Y-197943800D01*
X230243800Y-197943800D02*
X230897500Y-197943800D01*
X247497500Y-137743800D02*
X247497500Y-138943800D01*
X234500000Y-164300000D02*
X234500000Y-158600000D01*
X245497500Y-130343800D02*
X246597500Y-131443800D01*
%TO.N,Net-(U14-Pad11)*%
X251397500Y-150743800D02*
X251397500Y-158243800D01*
X250097500Y-137743800D02*
X252297500Y-139943800D01*
X247197500Y-144343800D02*
X247197500Y-146543800D01*
X274197500Y-152943800D02*
X272797500Y-154343800D01*
X250097500Y-131743800D02*
X250097500Y-137743800D01*
X252297500Y-139943800D02*
X256197500Y-139943800D01*
X270397500Y-139943800D02*
X273597500Y-143143800D01*
X247197500Y-146543800D02*
X251397500Y-150743800D01*
X274197500Y-150743800D02*
X274197500Y-152943800D01*
X240837500Y-122483800D02*
X250097500Y-131743800D01*
X272797500Y-154343800D02*
X272297500Y-154343800D01*
X270697500Y-144443800D02*
X267997500Y-141743800D01*
D49*
X256197500Y-139943800D02*
X256297500Y-139943800D01*
D48*
X251397500Y-158243800D02*
X251097500Y-158543800D01*
X256297500Y-139943800D02*
X270397500Y-139943800D01*
X273597500Y-150143800D02*
X274197500Y-150743800D01*
X270697500Y-152743800D02*
X270697500Y-144443800D01*
X272297500Y-154343800D02*
X270697500Y-152743800D01*
X249797500Y-141743800D02*
X247197500Y-144343800D01*
X273597500Y-143143800D02*
X273597500Y-150143800D01*
X267997500Y-141743800D02*
X249797500Y-141743800D01*
%TO.N,A15-*%
X255900000Y-147000000D02*
X255043800Y-146143800D01*
X278613800Y-173843800D02*
X282966200Y-173843800D01*
X268497500Y-157143800D02*
X268497500Y-172543800D01*
X271200000Y-174100000D02*
X271200000Y-173900000D01*
X271593800Y-174493800D02*
X272243800Y-173843800D01*
X270200000Y-186600000D02*
X270200000Y-175887600D01*
X256197500Y-147297500D02*
X255900000Y-147000000D01*
X249597500Y-144943800D02*
X249597500Y-143843800D01*
X256197500Y-155902500D02*
X256197500Y-147297500D01*
X270200000Y-175887600D02*
X271593800Y-174493800D01*
X278613800Y-173843800D02*
X279197500Y-173843800D01*
X271593800Y-174493800D02*
X271200000Y-174100000D01*
X268497500Y-156343800D02*
X268497500Y-157143800D01*
X266780000Y-191020000D02*
X269020000Y-191020000D01*
X272187600Y-173900000D02*
X272243800Y-173843800D01*
X256197500Y-156143800D02*
X256197500Y-155902500D01*
X250797500Y-146143800D02*
X249597500Y-144943800D01*
X250597500Y-142843800D02*
X260097500Y-142843800D01*
X249597500Y-143843800D02*
X250597500Y-142843800D01*
X269900000Y-173900000D02*
X271200000Y-173900000D01*
X270200000Y-189840000D02*
X270200000Y-186600000D01*
X260097500Y-142843800D02*
X264897500Y-147643800D01*
X255043800Y-146143800D02*
X253956200Y-146143800D01*
X271200000Y-173900000D02*
X272187600Y-173900000D01*
X272243800Y-173843800D02*
X278613800Y-173843800D01*
X269020000Y-191020000D02*
X270200000Y-189840000D01*
X268497500Y-172543800D02*
X268543800Y-172543800D01*
X253956200Y-146143800D02*
X250797500Y-146143800D01*
X279197500Y-173843800D02*
X279297500Y-173743800D01*
X264897500Y-147643800D02*
X264897500Y-152743800D01*
X264897500Y-152743800D02*
X268497500Y-156343800D01*
X282966200Y-173843800D02*
X283060000Y-173750000D01*
X268543800Y-172543800D02*
X269900000Y-173900000D01*
%TO.N,CS_SPI*%
X290950000Y-157090000D02*
X290890000Y-157090000D01*
X292280000Y-157090000D02*
X290950000Y-157090000D01*
X285920000Y-170230000D02*
X284850000Y-171300000D01*
X279550000Y-171300000D02*
X279520000Y-171300000D01*
X273760000Y-194020000D02*
X296330000Y-171450000D01*
X286660000Y-161320000D02*
X286660000Y-169490000D01*
X274920000Y-220230000D02*
X274920000Y-213770000D01*
X279520000Y-171300000D02*
X279500000Y-171320000D01*
X290890000Y-157090000D02*
X286660000Y-161320000D01*
X273760000Y-212610000D02*
X273760000Y-194020000D01*
X287720000Y-157090000D02*
X287510000Y-157300000D01*
X274920000Y-213770000D02*
X273760000Y-212610000D01*
X290950000Y-157090000D02*
X287720000Y-157090000D01*
X284850000Y-171300000D02*
X279550000Y-171300000D01*
X296330000Y-161140000D02*
X292280000Y-157090000D01*
X286660000Y-169490000D02*
X285920000Y-170230000D01*
X296330000Y-171450000D02*
X296330000Y-161140000D01*
%TO.N,PC0*%
X248283800Y-193843800D02*
X250030000Y-195590000D01*
X250030000Y-195590000D02*
X271500000Y-195590000D01*
X239220650Y-205420650D02*
X239220650Y-197379350D01*
X272940000Y-194150000D02*
X272940000Y-192780000D01*
X292650000Y-165990000D02*
X291620000Y-164960000D01*
X292597500Y-168622500D02*
X292650000Y-168570000D01*
X271500000Y-195590000D02*
X272940000Y-194150000D01*
X292650000Y-168570000D02*
X292650000Y-165990000D01*
X272940000Y-192780000D02*
X281450000Y-184270000D01*
X281530000Y-184270000D02*
X292597500Y-173202500D01*
X189297500Y-241443800D02*
X190297500Y-242443800D01*
X281450000Y-184270000D02*
X281530000Y-184270000D01*
X239220650Y-197379350D02*
X242756200Y-193843800D01*
X225697500Y-216843800D02*
X227797500Y-216843800D01*
X227797500Y-216843800D02*
X239220650Y-205420650D01*
X190297500Y-242443800D02*
X199097500Y-242443800D01*
X225697500Y-228143800D02*
X211397500Y-242443800D01*
X189297500Y-239643800D02*
X189297500Y-241443800D01*
X292597500Y-173202500D02*
X292597500Y-168622500D01*
X225697500Y-216843800D02*
X225697500Y-228143800D01*
X292597500Y-167843800D02*
X292597500Y-168622500D01*
X242756200Y-193843800D02*
X248283800Y-193843800D01*
X211397500Y-242443800D02*
X199097500Y-242443800D01*
X291620000Y-164960000D02*
X289120000Y-164960000D01*
X188297500Y-238643800D02*
X189297500Y-239643800D01*
%TO.N,Net-(U16-Pad6)*%
X198897500Y-234543800D02*
X199297500Y-234143800D01*
%TO.N,Net-(U16-Pad8)*%
X188397500Y-236343800D02*
X188497500Y-236443800D01*
%TO.N,PC7*%
X115700000Y-193700000D02*
X109400000Y-193700000D01*
X120500000Y-218200000D02*
X118500000Y-220200000D01*
X97500000Y-186900000D02*
X86500000Y-186900000D01*
X109400000Y-193700000D02*
X103900000Y-188200000D01*
X120500000Y-209200000D02*
X118200000Y-206900000D01*
X118200000Y-196200000D02*
X115700000Y-193700000D01*
X118200000Y-206900000D02*
X118200000Y-196200000D01*
X98800000Y-188200000D02*
X97500000Y-186900000D01*
X103900000Y-188200000D02*
X98800000Y-188200000D01*
X120500000Y-218200000D02*
X120500000Y-209200000D01*
X118500000Y-220200000D02*
X118500000Y-220700000D01*
%TO.N,Net-(J38-Pad6)*%
X185997500Y-232743800D02*
X185997500Y-225043800D01*
X185997500Y-225043800D02*
X186047500Y-224993800D01*
%TO.N,ACH1*%
X334390000Y-127080000D02*
X336740000Y-124730000D01*
X336740000Y-124730000D02*
X336740000Y-113970000D01*
X329920000Y-71470000D02*
X327850000Y-69400000D01*
X327850000Y-69400000D02*
X327850000Y-69180000D01*
X340830000Y-137490000D02*
X334390000Y-131050000D01*
X329920000Y-107150000D02*
X329920000Y-71470000D01*
X334390000Y-131050000D02*
X334390000Y-127080000D01*
X341970000Y-137490000D02*
X340830000Y-137490000D01*
X342630000Y-136830000D02*
X341970000Y-137490000D01*
X336740000Y-113970000D02*
X329920000Y-107150000D01*
%TO.N,Net-(U18-Pad1)*%
X264880000Y-197600000D02*
X268430000Y-197600000D01*
X268430000Y-197600000D02*
X270140000Y-199310000D01*
X247700000Y-196600000D02*
X246000000Y-196600000D01*
X264880000Y-197600000D02*
X248700000Y-197600000D01*
X246000000Y-196600000D02*
X243500000Y-199100000D01*
X248700000Y-197600000D02*
X247700000Y-196600000D01*
%TO.N,Net-(U18-Pad4)*%
X269500000Y-200900000D02*
X267200000Y-198600000D01*
X269500000Y-224490000D02*
X269500000Y-200900000D01*
X267200000Y-198600000D02*
X246600000Y-198600000D01*
X267900000Y-225960000D02*
X268030000Y-225960000D01*
X268030000Y-225960000D02*
X269500000Y-224490000D01*
%TO.N,Net-(U28-Pad6)*%
X258200000Y-227300000D02*
X259000000Y-228100000D01*
X230000000Y-229500000D02*
X230000000Y-218700000D01*
X255200000Y-235500000D02*
X236000000Y-235500000D01*
X240700000Y-199000000D02*
X240700000Y-208000000D01*
X230000000Y-218700000D02*
X239850000Y-208850000D01*
X236000000Y-235500000D02*
X230000000Y-229500000D01*
X259000000Y-228100000D02*
X259000000Y-231700000D01*
X240700000Y-208000000D02*
X239850000Y-208850000D01*
X259000000Y-231700000D02*
X255200000Y-235500000D01*
%TO.N,Net-(U24-Pad1)*%
X81400000Y-186700000D02*
X80100000Y-186700000D01*
X78000000Y-198700000D02*
X79400000Y-200100000D01*
X94900000Y-200100000D02*
X96300000Y-198700000D01*
X96300000Y-198700000D02*
X96300000Y-197600000D01*
X79400000Y-200100000D02*
X94900000Y-200100000D01*
X80100000Y-186700000D02*
X78000000Y-188800000D01*
X78000000Y-188800000D02*
X78000000Y-198700000D01*
%TO.N,Net-(U28-Pad3)*%
X288200000Y-143200000D02*
X276900000Y-143200000D01*
X253910000Y-231390000D02*
X251500000Y-233800000D01*
X100700000Y-130400000D02*
X100700000Y-115300000D01*
X297900000Y-152900000D02*
X288200000Y-143200000D01*
X270210000Y-214190000D02*
X270210000Y-225090000D01*
X103500000Y-106700000D02*
X162700000Y-106700000D01*
X269600000Y-225700000D02*
X269600000Y-234900000D01*
X204700000Y-105600000D02*
X207100000Y-103200000D01*
X253000000Y-219200000D02*
X253000000Y-220100000D01*
X207100000Y-103200000D02*
X237700000Y-103200000D01*
X253000000Y-220100000D02*
X253910000Y-221010000D01*
X244400000Y-109900000D02*
X244400000Y-121600000D01*
X245800000Y-233800000D02*
X243400000Y-231400000D01*
X162700000Y-106700000D02*
X173450000Y-117450000D01*
X245700000Y-194800000D02*
X246990000Y-194800000D01*
X269600000Y-234900000D02*
X270300000Y-235600000D01*
X103700000Y-157500000D02*
X103700000Y-133400000D01*
X276900000Y-143200000D02*
X272300000Y-138600000D01*
X253910000Y-221010000D02*
X253910000Y-231390000D01*
X272300000Y-138600000D02*
X260600000Y-138600000D01*
X271400000Y-213000000D02*
X270210000Y-214190000D01*
X103700000Y-133400000D02*
X100700000Y-130400000D01*
X192850000Y-117450000D02*
X204700000Y-105600000D01*
X173450000Y-117450000D02*
X192850000Y-117450000D01*
X270210000Y-225090000D02*
X269600000Y-225700000D01*
X242100000Y-210900000D02*
X242100000Y-198400000D01*
X285500000Y-235600000D02*
X297900000Y-223200000D01*
X101600000Y-114400000D02*
X101600000Y-108600000D01*
X96900000Y-164300000D02*
X103700000Y-157500000D01*
X244100000Y-212900000D02*
X242100000Y-210900000D01*
X242100000Y-198400000D02*
X245700000Y-194800000D01*
X247530000Y-194800000D02*
X249340000Y-196610000D01*
X243400000Y-231400000D02*
X243400000Y-221000000D01*
X237700000Y-103200000D02*
X244400000Y-109900000D01*
X243400000Y-221000000D02*
X244100000Y-220300000D01*
X253000000Y-219200000D02*
X253200000Y-219000000D01*
X270210000Y-196610000D02*
X271400000Y-197800000D01*
X271400000Y-197800000D02*
X271400000Y-213000000D01*
X101600000Y-108600000D02*
X103500000Y-106700000D01*
X244400000Y-122400000D02*
X244400000Y-121600000D01*
X100700000Y-115300000D02*
X101600000Y-114400000D01*
X260600000Y-138600000D02*
X244400000Y-122400000D01*
X297900000Y-223200000D02*
X297900000Y-152900000D01*
X251500000Y-233800000D02*
X245800000Y-233800000D01*
X249340000Y-196610000D02*
X270210000Y-196610000D01*
X270300000Y-235600000D02*
X285500000Y-235600000D01*
X246990000Y-194800000D02*
X247530000Y-194800000D01*
X244100000Y-220300000D02*
X244100000Y-212900000D01*
%TO.N,Net-(U30-Pad10)*%
X266100000Y-225000000D02*
X266240000Y-225000000D01*
X99800000Y-131100000D02*
X99800000Y-114300000D01*
X163400000Y-105400000D02*
X173700000Y-115700000D01*
X286000000Y-237200000D02*
X269700000Y-237200000D01*
X102800000Y-105400000D02*
X163400000Y-105400000D01*
X245900000Y-120400000D02*
X248700000Y-123200000D01*
X269700000Y-237200000D02*
X266100000Y-233600000D01*
X238600000Y-102100000D02*
X245500000Y-109000000D01*
X268570000Y-211380000D02*
X265490000Y-208300000D01*
X245200000Y-212100000D02*
X245200000Y-228760000D01*
X266240000Y-225000000D02*
X268570000Y-222670000D01*
X206700000Y-102100000D02*
X238600000Y-102100000D01*
X248700000Y-123200000D02*
X258500000Y-123200000D01*
X245500000Y-109000000D02*
X245500000Y-109900000D01*
X102500000Y-133800000D02*
X99800000Y-131100000D01*
X99800000Y-114300000D02*
X100300000Y-113800000D01*
X173700000Y-115700000D02*
X193100000Y-115700000D01*
X258500000Y-123200000D02*
X273700000Y-138400000D01*
X245500000Y-109900000D02*
X245800000Y-110200000D01*
X265490000Y-208300000D02*
X249000000Y-208300000D01*
X268570000Y-222670000D02*
X268570000Y-211380000D01*
X249000000Y-208300000D02*
X245200000Y-212100000D01*
X301100000Y-222100000D02*
X286000000Y-237200000D01*
X102500000Y-153600000D02*
X102500000Y-133800000D01*
X245800000Y-110200000D02*
X245800000Y-120400000D01*
X100300000Y-107900000D02*
X102800000Y-105400000D01*
X266100000Y-233600000D02*
X266100000Y-225000000D01*
X273700000Y-138400000D02*
X292200000Y-138400000D01*
X94360000Y-164440000D02*
X94300000Y-164380000D01*
X193100000Y-115700000D02*
X206700000Y-102100000D01*
X94300000Y-161800000D02*
X102500000Y-153600000D01*
X301100000Y-147300000D02*
X301100000Y-222100000D01*
X100300000Y-113800000D02*
X100300000Y-107900000D01*
X292200000Y-138400000D02*
X301100000Y-147300000D01*
X94300000Y-164380000D02*
X94300000Y-161800000D01*
X245800000Y-120400000D02*
X245900000Y-120400000D01*
D49*
%TO.N,Net-(J50-Pad2)*%
X185197500Y-150443800D02*
X185197500Y-134943800D01*
X182947500Y-152693800D02*
X185197500Y-150443800D01*
D47*
X184997500Y-149855819D02*
X181656703Y-153196616D01*
X184997500Y-134943800D02*
X185197500Y-134943800D01*
X183597500Y-133543800D02*
X184997500Y-134943800D01*
X184997500Y-134943800D02*
X184997500Y-149855819D01*
D48*
X181656703Y-153196616D02*
X182444684Y-153196616D01*
X182444684Y-153196616D02*
X182947500Y-152693800D01*
%TO.N,Net-(C39-Pad1)*%
X312340000Y-85380000D02*
X312640000Y-85680000D01*
X309520000Y-111920000D02*
X307250000Y-109650000D01*
X307250000Y-109650000D02*
X307250000Y-96930000D01*
X323080000Y-118700000D02*
X316300000Y-111920000D01*
X316300000Y-111920000D02*
X309520000Y-111920000D01*
X309410000Y-88390000D02*
X309410000Y-87270000D01*
X309540000Y-88520000D02*
X309410000Y-88390000D01*
X311300000Y-85380000D02*
X312340000Y-85380000D01*
X309410000Y-87270000D02*
X311300000Y-85380000D01*
X309540000Y-94640000D02*
X309540000Y-88520000D01*
X307250000Y-96930000D02*
X309540000Y-94640000D01*
X331010000Y-118700000D02*
X323080000Y-118700000D01*
%TO.N,IN-4A*%
X289810000Y-89260000D02*
X289810000Y-111300000D01*
X340970000Y-126190000D02*
X341160000Y-126190000D01*
X348580000Y-141980000D02*
X348580000Y-139700000D01*
X288810000Y-88260000D02*
X289810000Y-89260000D01*
X294980000Y-116470000D02*
X315890000Y-116470000D01*
X337310000Y-127550000D02*
X338670000Y-126190000D01*
X315890000Y-116470000D02*
X342170000Y-142750000D01*
X337310000Y-128430000D02*
X337310000Y-127550000D01*
X342170000Y-142750000D02*
X347810000Y-142750000D01*
X338670000Y-126190000D02*
X340970000Y-126190000D01*
X348580000Y-139700000D02*
X337310000Y-128430000D01*
X286990000Y-88260000D02*
X288810000Y-88260000D01*
X347810000Y-142750000D02*
X348580000Y-141980000D01*
X289810000Y-111300000D02*
X294980000Y-116470000D01*
%TO.N,IN-4B*%
X348200000Y-143830000D02*
X348980000Y-143050000D01*
X349130000Y-134870000D02*
X345730000Y-134870000D01*
X306530000Y-129440000D02*
X326470000Y-129440000D01*
X288390000Y-111280000D02*
X288380000Y-111290000D01*
X288380000Y-111290000D02*
X306530000Y-129440000D01*
X348980000Y-143050000D02*
X351610000Y-143050000D01*
X326470000Y-129440000D02*
X340860000Y-143830000D01*
X345730000Y-134870000D02*
X341300000Y-130440000D01*
X288390000Y-91760000D02*
X288390000Y-111280000D01*
X352960000Y-138700000D02*
X349130000Y-134870000D01*
X341300000Y-130440000D02*
X341300000Y-128880000D01*
X289000000Y-91850000D02*
X288020000Y-90870000D01*
X351610000Y-143050000D02*
X352960000Y-141700000D01*
X288020000Y-90870000D02*
X287500000Y-90870000D01*
X352960000Y-141700000D02*
X352960000Y-138700000D01*
X340860000Y-143830000D02*
X348200000Y-143830000D01*
X287500000Y-90870000D02*
X288390000Y-91760000D01*
%TD*%
M02*
